<svg xmlns="http://www.w3.org/2000/svg" viewBox="0 0 100 200"><defs><style>.cls-1{isolation:isolate;}.cls-2{fill:#141414;}.cls-3{stroke:#fff;stroke-linejoin:round;}.cls-4{fill:red;mix-blend-mode:multiply;}</style></defs><title>campaign-outline</title><g class="cls-1"><g id="Layer_1" data-name="Layer 1"><polygon class="cls-2" points="50 142.19 16.62 200 83.38 200 50 142.19"/><path class="cls-3" d="M61.66,90v11a15.33,15.33,0,0,1-1.36,6.61,10.43,10.43,0,0,1-3.89,4.45,11,11,0,0,1-5.95,1.58,11,11,0,0,1-6-1.58,10.3,10.3,0,0,1-3.89-4.45A15.19,15.19,0,0,1,39.26,101V90ZM45.15,100.71a5.39,5.39,0,0,0,1.39,3.89,5.17,5.17,0,0,0,3.92,1.46,5.18,5.18,0,0,0,3.92-1.46,5.39,5.39,0,0,0,1.39-3.89V97.54H45.15Z"/><path class="cls-3" d="M32.79,125.14a2.67,2.67,0,0,1,2-.81,2.77,2.77,0,0,1,2,.81,2.87,2.87,0,0,1,.8,2.07,2.83,2.83,0,0,1-.8,2.06,2.74,2.74,0,0,1-2,.82,2.65,2.65,0,0,1-2-.82,2.88,2.88,0,0,1-.76-2.06A2.92,2.92,0,0,1,32.79,125.14Z"/><path class="cls-3" d="M41.53,119.11q2.79-2.88,7.81-2.88H61.66v7.55H49.56a5.84,5.84,0,0,0-3.58.88,3.45,3.45,0,0,0,0,5.09,5.78,5.78,0,0,0,3.58.88h12.1v7.43H49.34q-5,0-7.81-2.88c-1.86-1.92-2.78-4.6-2.78-8S39.67,121,41.53,119.11Z"/><path class="cls-3" d="M61.66,134.12v1.28a1.66,1.66,0,0,0,.54,1.23,1.94,1.94,0,0,0,1.41.53,2.66,2.66,0,0,0,1.82-.64l1.44,4.09a5.55,5.55,0,0,1-3.55,1.19c-1.94,0-4.92-2.21-4.92-4.21"/><path class="cls-3" d="M43.16,167V158.5l-3.9-1.5v-7.68l22.4,9.79v7.42l-22.4,9.8v-7.81Zm5.44-2.09,5.63-2.17-5.63-2.18Zm20-1.24v6.88l-5.12-6.31v-4.8Z"/><path class="cls-3" d="M61.66,199.62H39.26v-6.2l10.17-8.52H39.26v-7.36h22.4v6.21l-10.18,8.51H61.66Z"/><polygon class="cls-4" points="50 142.19 16.62 200 83.38 200 50 142.19"/></g></g></svg>