<svg xmlns="http://www.w3.org/2000/svg" xmlns:xlink="http://www.w3.org/1999/xlink" viewBox="0 0 1920 1080"><defs><style>.cls-1,.cls-19,.cls-4,.cls-5{fill:none;}.cls-2{isolation:isolate;}.cls-3{fill:#141414;}.cls-19,.cls-4,.cls-5{stroke:#fff;stroke-miterlimit:10;stroke-width:5px;}.cls-5{stroke-dasharray:19.91 19.91;}.cls-6{fill:#fff;}.cls-7{fill:#ebff00;}.cls-8{clip-path:url(#clip-path);}.cls-9{clip-path:url(#clip-path-2);}.cls-10{clip-path:url(#clip-path-3);}.cls-11{clip-path:url(#clip-path-4);}.cls-12{clip-path:url(#clip-path-5);}.cls-13{clip-path:url(#clip-path-6);}.cls-14{fill:#00ff75;}.cls-14,.cls-15,.cls-16,.cls-17,.cls-18{mix-blend-mode:multiply;}.cls-15{fill:red;}.cls-16{fill:#00d1ff;}.cls-17{fill:#ff00d6;}.cls-18{fill:#000aff;}.cls-19{stroke-linecap:round;}</style><clipPath id="clip-path"><rect class="cls-1" x="376.5" y="364" width="121" height="121"/></clipPath><clipPath id="clip-path-2"><rect class="cls-1" x="850.28" y="364" width="122" height="122"/></clipPath><clipPath id="clip-path-3"><rect class="cls-1" x="1426.78" y="190" width="106" height="107.93"/></clipPath><clipPath id="clip-path-4"><rect class="cls-1" x="1419.28" y="794" width="121" height="121"/></clipPath><clipPath id="clip-path-5"><rect class="cls-1" x="1507" y="345" width="87" height="87"/></clipPath><clipPath id="clip-path-6"><rect class="cls-1" x="760" y="844" width="77" height="77"/></clipPath></defs><title>map_bg</title><g class="cls-2"><g id="Layer_1" data-name="Layer 1"><rect class="cls-3" y="2" width="1920" height="1080"/><path class="cls-4" d="M291.5-42.5v207s-4,64,64,64,859-1,914-1S1370,276.5,1370,328s.5,278.5.5,332.5-35.75,107-101,107H191.5"/><path class="cls-4" d="M191.5-42.5v270c0,60,38,100,100,100s849,1,912,1,67,46,67,78v170c0,50,15,92-73,92s-1006-1-1006-1"/><path class="cls-5" d="M239-13.1V228c0,25,20,52,52,52s946.5-.5,978.5-.5,52,24,52,49v340c0,23-19.5,46-51,46-28.92,0-914.67,1.69-1059.55,2"/><path class="cls-4" d="M201,716.48l-10,0"/><path class="cls-6" d="M678.39,548.13A34.48,34.48,0,0,0,644,582.57c0,13.57,5.68,27.3,16.43,39.7A87.13,87.13,0,0,0,676.7,637a3.12,3.12,0,0,0,1.69.5,3.17,3.17,0,0,0,1.69-.5,87.48,87.48,0,0,0,16.32-14.73c10.75-12.4,16.43-26.13,16.43-39.7A34.48,34.48,0,0,0,678.39,548.13Zm0,82.49c-6.33-4.7-28.26-22.82-28.26-48a28.27,28.27,0,1,1,56.53,0C706.65,607.74,684.71,625.91,678.38,630.62Z"/><circle class="cls-7" cx="678.38" cy="584.2" r="11.48"/><path class="cls-6" d="M437,105.13a34.48,34.48,0,0,0-34.44,34.44c0,13.57,5.68,27.3,16.43,39.7A87.13,87.13,0,0,0,435.31,194a3.11,3.11,0,0,0,3.38,0A87.48,87.48,0,0,0,455,179.27c10.75-12.4,16.43-26.13,16.43-39.7A34.48,34.48,0,0,0,437,105.13Zm0,82.49c-6.34-4.7-28.27-22.82-28.27-48.05a28.27,28.27,0,1,1,56.53,0C465.26,164.74,443.33,182.91,437,187.62Z"/><circle class="cls-7" cx="437" cy="141.2" r="11.48"/><path class="cls-6" d="M911.28,105.13a34.48,34.48,0,0,0-34.44,34.44c0,13.57,5.68,27.3,16.43,39.7A87.13,87.13,0,0,0,909.59,194a3.11,3.11,0,0,0,3.38,0,87.48,87.48,0,0,0,16.32-14.73c10.75-12.4,16.43-26.13,16.43-39.7A34.48,34.48,0,0,0,911.28,105.13Zm0,82.49c-6.34-4.7-28.27-22.82-28.27-48.05a28.27,28.27,0,1,1,56.54,0C939.55,164.74,917.61,182.91,911.28,187.62Z"/><circle class="cls-7" cx="911.28" cy="141.2" r="11.48"/><path class="cls-6" d="M1151.59,563.44A34.48,34.48,0,0,0,1186,597.88c13.57,0,27.3-5.69,39.7-16.44a86.08,86.08,0,0,0,14.72-16.32,3,3,0,0,0,0-3.37,86.5,86.5,0,0,0-14.72-16.32c-12.4-10.75-26.13-16.44-39.7-16.44A34.48,34.48,0,0,0,1151.59,563.44Zm82.5,0c-4.71,6.33-22.82,28.26-48,28.26a28.27,28.27,0,1,1,0-56.53C1211.21,535.17,1229.37,557.11,1234.09,563.44Z"/><circle class="cls-7" cx="1187.67" cy="563.44" r="11.48"/><path class="cls-6" d="M740.15,907.27a2.13,2.13,0,0,0-2.93.32l-5.92,7.19c-5-14.73-25-69.53-48.2-84.58l7.19-7a2,2,0,0,0,0-2.86,2.11,2.11,0,0,0-2.95,0l-6.9,6.66V815.91h28.67l-10.92-8,10.92-8h-33v27l-6.66-6.67a2.13,2.13,0,0,0-3,0,2,2,0,0,0,0,2.86l7.18,7c-23.17,15-43.16,69.85-48.19,84.58l-5.93-7.19a2.12,2.12,0,0,0-2.93-.32,2,2,0,0,0-.32,2.85l8.34,10.12s.09.06.13.11a3.32,3.32,0,0,0,.42.32l.32.17s.08,0,.13.06a2,2,0,0,0,.62.1h0a1.81,1.81,0,0,0,.61-.1,1.11,1.11,0,0,0,.19-.09,3.23,3.23,0,0,0,.41-.22l0,0c.05,0,.07-.09.11-.12A2.3,2.3,0,0,0,628,920a1.15,1.15,0,0,0,.12-.25,2,2,0,0,0,.11-.2c.23-.7,21.22-65.19,45.09-84.14l-42,85.32h94.18l-42.05-85.32c23.87,18.95,44.86,83.44,45.09,84.14a1.86,1.86,0,0,0,.1.2,2,2,0,0,0,.13.25,2.3,2.3,0,0,0,.35.41s.06.08.11.12l0,0a3.11,3.11,0,0,0,.4.22,1.62,1.62,0,0,0,.81.19h0a2.27,2.27,0,0,0,.62-.09s.08-.06.13-.07a3.24,3.24,0,0,0,.32-.17,2.32,2.32,0,0,0,.42-.32c0-.05.1-.06.14-.11l8.34-10.12A2,2,0,0,0,740.15,907.27Zm-43.33-95.7H680.44v-8h16.38l-5.46,4Zm.42,84.92-4.1,15-10.59-35.33,10.76,8.55A11.29,11.29,0,0,1,697.24,896.49ZM666.82,917.1l11.81-39.37,11.82,39.42Zm-2.7-5.68L660,896.49A11.3,11.3,0,0,1,664,884.66l10.79-8.57Zm49.69,5.73a2.09,2.09,0,0,0-4.17,0h-4.16a2.09,2.09,0,0,0-4.17,0h-5.38l2.81-10.21a2.5,2.5,0,0,0,.49.09,2.06,2.06,0,0,0,2.08-2,2,2,0,0,0-1.52-1.92l1.47-5.34a15.29,15.29,0,0,0-5.32-16l-15.7-12.47-.28-.57-2.73,0-.28.58-15.62,12.41a15.27,15.27,0,0,0-5.32,16l1.44,5.25a2,2,0,1,0,.1,4,2.15,2.15,0,0,0,.94-.24l2.84,10.36h-5.87a2.08,2.08,0,0,0-4.16,0h-4.17a2.09,2.09,0,0,0-4.17,0h-5l1.36-2.78a2.09,2.09,0,0,0,1.59.76,2,2,0,1,0,0-4l4-8.12.14,0a2.06,2.06,0,0,0,2.09-2,2,2,0,0,0-.57-1.37l.84-1.73a2.09,2.09,0,0,0,1.81,1.08,2,2,0,1,0,0-4.05,2.53,2.53,0,0,0-.38.07l29.56-60.13L707.94,895a2.32,2.32,0,0,0-.38-.07,2,2,0,1,0,0,4.05,2.09,2.09,0,0,0,1.81-1.08l.84,1.73a2,2,0,0,0-.57,1.37,2.06,2.06,0,0,0,2.09,2l.14,0,4,8.12a2,2,0,1,0,0,4,2.07,2.07,0,0,0,1.58-.76l1.37,2.78Z"/><path class="cls-6" d="M649.2,914.93a2,2,0,1,0-2.09-2A2.06,2.06,0,0,0,649.2,914.93Z"/><path class="cls-6" d="M649.2,906.83a2,2,0,1,0-2.09-2A2.06,2.06,0,0,0,649.2,906.83Z"/><path class="cls-6" d="M653.37,902.78a2,2,0,1,0-2.09-2A2.06,2.06,0,0,0,653.37,902.78Z"/><path class="cls-6" d="M657.54,914.93a2,2,0,1,0-2.09-2A2.06,2.06,0,0,0,657.54,914.93Z"/><path class="cls-6" d="M653.37,910.88a2,2,0,1,0-2.09-2A2.06,2.06,0,0,0,653.37,910.88Z"/><path class="cls-6" d="M645,910.88a2,2,0,1,0-2.09-2A2.06,2.06,0,0,0,645,910.88Z"/><path class="cls-6" d="M707.58,914.93a2,2,0,1,0-2.09-2A2.06,2.06,0,0,0,707.58,914.93Z"/><path class="cls-6" d="M707.58,906.83a2,2,0,1,0-2.09-2A2.06,2.06,0,0,0,707.58,906.83Z"/><path class="cls-6" d="M703.41,902.78a2,2,0,1,0-2.09-2A2.06,2.06,0,0,0,703.41,902.78Z"/><path class="cls-6" d="M699.24,914.93a2,2,0,1,0-2.09-2A2.06,2.06,0,0,0,699.24,914.93Z"/><path class="cls-6" d="M703.41,910.88a2,2,0,1,0-2.09-2A2.06,2.06,0,0,0,703.41,910.88Z"/><path class="cls-6" d="M711.75,910.88a2,2,0,1,0-2.09-2A2.06,2.06,0,0,0,711.75,910.88Z"/><g class="cls-8"><path class="cls-6" d="M490,456.29a1.39,1.39,0,1,0-1.38-1.39A1.38,1.38,0,0,0,490,456.29Z"/><path class="cls-6" d="M471.89,456.29a1.39,1.39,0,1,0-1.39-1.39A1.38,1.38,0,0,0,471.89,456.29Z"/><path class="cls-6" d="M453.81,456.29a1.39,1.39,0,1,0-1.38-1.39A1.38,1.38,0,0,0,453.81,456.29Z"/><path class="cls-6" d="M480.6,433.14h-.39V418.35a1.77,1.77,0,0,0-1.77-1.77H449.58a1.78,1.78,0,0,0-1.78,1.77v14.79h.33a1.78,1.78,0,0,0-1.77,1.78v7.25a1.78,1.78,0,0,0,1.77,1.78H480.6a1.78,1.78,0,0,0,1.77-1.78v-7.25A1.78,1.78,0,0,0,480.6,433.14Zm-29.2-13h25.21v13H451.4Zm27.37,20.17H449.24v-3.61h29.53Z"/><path class="cls-6" d="M421.54,425.94h-.39V411.15a1.77,1.77,0,0,0-1.77-1.77H404.92a1.77,1.77,0,0,0-1.77,1.77v14.79h-.39a1.77,1.77,0,0,0-1.77,1.77v6.54a1.77,1.77,0,0,0,1.77,1.77h18.78a1.77,1.77,0,0,0,1.77-1.77v-6.54A1.77,1.77,0,0,0,421.54,425.94Zm-14.79-13h10.8v13h-10.8Zm13,19.44H404.59v-3.6h15.12Z"/><path class="cls-6" d="M496.54,449.26l-4.8-2.5v-34.5h3.11a1.73,1.73,0,0,0,1.47-.84,1.84,1.84,0,0,0,.11-1.72l-9.59-20.9a1.77,1.77,0,0,0-1.61-1H471.57v-8.64h.32a1.88,1.88,0,0,0,1.84-1.77V370c-.07-1-1.84-1.7-1.84-1.7H454.66s-1.77.72-1.82,1.7v7.34a1.84,1.84,0,0,0,1.82,1.77h1.07v8.64H420l-3.79-3.29a5.91,5.91,0,0,0-7.75,0l-3.78,3.29H391.34a1.77,1.77,0,0,0-1.6,1l-9.64,20.35-2.9,2.53a1.75,1.75,0,0,0-.17,2.5l5.45,6.22a1.8,1.8,0,0,0,1.22.61v57.92a1.77,1.77,0,0,0,1.77,1.77H495.73a1.77,1.77,0,0,0,1.77-1.77V450.83A1.76,1.76,0,0,0,496.54,449.26Zm-40.09-77.34h13.68v3.6H456.45Zm10.8,7.21v13h-8.64v-13Zm-74.92,12.24h8.11l-13.77,12Zm27.38,85.71H404.59V445.39h15.12Zm17.29,0H423.31V443.56a1.77,1.77,0,0,0-1.77-1.77H402.76a1.77,1.77,0,0,0-1.77,1.77v33.52H387.3V418.47l24.85-21.82L437,418.47ZM412.32,393a1.48,1.48,0,0,0-1.95,0l-27.49,24-3.13-3.58L410.05,387a2,2,0,0,1,2.59,0l14.56,12.71a1.6,1.6,0,0,0,1.32.38,1.81,1.81,0,0,0,1-3.14l-6.35-5.54H455v2.55a1.78,1.78,0,0,0,1.78,1.77h12.3a1.77,1.77,0,0,0,1.77-1.77v-2.55h12.91l8.15,17.28h-49l-8.16-7.12a1.54,1.54,0,0,0-1.49-.33,1.81,1.81,0,0,0-.75,3.11l10.41,9.1L439.8,417Zm34,84.08H440.6v-2.16h5.76Zm0-5.76H440.6v-3.61h5.76Zm0-7.21H440.6v-4.32h5.76Zm0-7.92H440.6v-3.6h5.76Zm11.53,20.89H450V451.85l4-2.07,4,2.07Zm6.48,0h-2.88v-2.16h2.88Zm0-5.76h-2.88v-3.61h2.88Zm0-7.21h-2.88v-4.32h2.88Zm0-7.92h-2.88v-3.6h2.88Zm11.52,20.89H468V451.85l4-2.07,4,2.07Zm6.48,0h-2.88v-2.16h2.88Zm0-5.76h-2.88v-3.61h2.88Zm0-7.21h-2.88v-4.32h2.88Zm0-7.92h-2.88v-3.6h2.88ZM478,449l-5.38-2.82a1.76,1.76,0,0,0-1.64,0L465.62,449H460l-5.38-2.82a1.78,1.78,0,0,0-1.65,0L447.54,449H440.6V420.62l.39-.08a1.8,1.8,0,0,0,.82-.53l5.45-6.29a1.83,1.83,0,0,0,.12-2.18h40.76v35.13h0L483.71,449Zm15.87,28.09H486V451.85l4-2.07,4,2.07Z"/></g><g class="cls-9"><path class="cls-6" d="M970.67,412.49l-36.88-14.07v-.29h2.52a1.35,1.35,0,0,0,1.28-.94,1.38,1.38,0,0,0-.46-1.53l-24.4-19v-3.15a21.54,21.54,0,0,1,6.81.27,36,36,0,0,0,5,.47,13.76,13.76,0,0,0,3.88-.51,1.37,1.37,0,0,0,1-1.32v-6.62a1.37,1.37,0,0,0-1.74-1.33c-2.53.72-5.12.35-7.87,0a24,24,0,0,0-8-.21c-.34.07-1.09.27-1.11.28a1.36,1.36,0,0,0-.93,1.3v10.86l-24.64,19a1.38,1.38,0,0,0,.83,2.47h2.75v.29l-36.88,14.06a1.39,1.39,0,0,0-.88,1.29v4.59a1.36,1.36,0,0,0,.6,1.13,1.44,1.44,0,0,0,.8.24,1.47,1.47,0,0,0,.5-.09l2.45-.92V472.2h-.8a1.38,1.38,0,0,0-1.38,1.38v11a1.38,1.38,0,0,0,1.38,1.38H968a1.38,1.38,0,0,0,1.38-1.38v-11A1.38,1.38,0,0,0,968,472.2h-.8V418.72l2.45.92a1.43,1.43,0,0,0,.5.09,1.44,1.44,0,0,0,.8-.24,1.36,1.36,0,0,0,.6-1.13v-4.59A1.37,1.37,0,0,0,970.67,412.49Zm-58.62,28.37a1.36,1.36,0,0,0-.77-.23,1.34,1.34,0,0,0-.77.23l-21.74,14.49v-2l22.51-15,22.51,15v2Zm10.85-42.73v4.43a1.38,1.38,0,0,0,1.38,1.38h-.66v39.47l-11.94-8a1.37,1.37,0,0,0-1.53,0l-11.94,8V403.94h.8a1.38,1.38,0,0,0,1.38-1.38v-4.43Zm8,2.91h-5.81v-2.91h5.81Zm-33.41,0h-5.81v-2.91h5.81Zm-4.36,2.9H896v41.31L893.12,447Zm33.41,41.31V403.94h2.9V447Zm-36.5-50,1.52-1.46h10.51s1.38-.16,1.38-.93-1.38-1.24-1.38-1.24h-7l1.89-1.46h4.21a1.39,1.39,0,0,0,1.27-.73,1.46,1.46,0,0,0-1.28-2.17h-.52l10.65-8.16,21.09,16.15Zm29.77-28.07a26.49,26.49,0,0,0,7.46.33v3.91a22.89,22.89,0,0,1-7.07-.27,26.49,26.49,0,0,0-7.46-.33v-3.91A22.59,22.59,0,0,1,919.8,367.16ZM853.91,414.7l34.86-13.29v1.68l-34.86,13.29Zm4.36,3,32-12.29V449l-3.74,2.49a1.38,1.38,0,0,0-.62,1.15v5.24A1.39,1.39,0,0,0,888,459l2.2-1.47v7.37h-.87a2,2,0,0,0-1.31,1.77v5.49H858.27Zm-2.18,64.7h11.49a1.39,1.39,0,0,0,1.27-.73,1.47,1.47,0,0,0-1.27-2.18H856.09v-.72h6.27a1.4,1.4,0,0,0,1.27-.73,1.48,1.48,0,0,0-1.28-2.18h-6.26v-.72H888v.72h-6.26a1.41,1.41,0,0,0-1.28.74,1.47,1.47,0,0,0,1.28,2.17H888v.72h-2.88a1.4,1.4,0,0,0-1.27.74,1.46,1.46,0,0,0,1.27,2.17H888v.73H856.09Zm36.31.73H891V467.85h1.45Zm2.9-10.9H928v1.45H895.3Zm27.6-2.9H920V458.4h2.91Zm-5.81,0h-4.36V458.4h4.36Zm-7.26,0h-4.36V458.4h4.36Zm-7.26,0h-2.91V458.4h2.91Zm-7.27,6.53H928V478H895.3Zm0,5.09H928v2.18H895.3Zm32-14.21v2.59H925.8V457.6a1.37,1.37,0,0,0-1.37-1.37H898.86a1.37,1.37,0,0,0-1.38,1.37v11.7H895.3v-2.59c-.27-.77-.89-1.38-1.65-1h-.53v-9.45l6.54-4.35h15a1.4,1.4,0,0,0,1.27-.73,1.47,1.47,0,0,0-1.27-2.18h-9.16l2.18-1.45h3a1.33,1.33,0,0,0,1.34-1,1.27,1.27,0,0,0-.71-1.39l1.36-.91,16.74,11.16v10.33h-.52C928.15,465.33,927.53,465.94,927.26,466.71Zm4.35,16.39h-1.45V467.85h1.45Zm2.91,0v-.73h2.88a1.39,1.39,0,0,0,1.27-.73,1.47,1.47,0,0,0-1.27-2.18h-2.88v-.72h6.26a1.39,1.39,0,0,0,1.27-.73,1.47,1.47,0,0,0-1.27-2.18h-6.26v-.72h32v.72h-6.26a1.4,1.4,0,0,0-1.27.74,1.46,1.46,0,0,0,1.27,2.17h6.26v.72H955a1.41,1.41,0,0,0-1.28.74,1.47,1.47,0,0,0,1.28,2.17h11.49v.73Zm29.77-10.9H934.52v-5.88a1.38,1.38,0,0,0-1.38-1.38h-.8v-7.75l2.2,1.46a1.42,1.42,0,0,0,.77.23,1.33,1.33,0,0,0,.65-.16,1.37,1.37,0,0,0,.74-1.21v-4.86a1.38,1.38,0,0,0-.62-1.15l-3.74-2.5V405.38l31.95,12.29V472.2Zm4.36-55.82-34.86-13.29v-1.68l34.86,13.29Z"/><path class="cls-6" d="M906.92,407.49v6.69a1.38,1.38,0,0,0,1.38,1.38h6a1.38,1.38,0,0,0,1.38-1.38v-6.69a4.28,4.28,0,0,0-4.28-4.28h-.17A4.28,4.28,0,0,0,906.92,407.49Zm6.54.14v5h-3.63v-5a1.52,1.52,0,0,1,1.51-1.51h.6A1.52,1.52,0,0,1,913.46,407.63Z"/><path class="cls-6" d="M911.36,419.19h-.17a4.27,4.27,0,0,0-4.27,4.27v6.7a1.38,1.38,0,0,0,1.38,1.38h6a1.38,1.38,0,0,0,1.38-1.38v-6.7A4.28,4.28,0,0,0,911.36,419.19Zm2.1,9.44h-3.63v-5a1.51,1.51,0,0,1,1.51-1.51h.6a1.51,1.51,0,0,1,1.52,1.51Z"/><path class="cls-6" d="M863.28,432.26h6a1.38,1.38,0,0,0,1.38-1.38v-6.69a4.27,4.27,0,0,0-4.27-4.27h-.17a4.27,4.27,0,0,0-4.27,4.27v6.69A1.38,1.38,0,0,0,863.28,432.26Zm3-9.44h.6a1.51,1.51,0,0,1,1.51,1.52v5H864.8v-5A1.52,1.52,0,0,1,866.32,422.82Z"/><path class="cls-6" d="M879.41,419.92h-.17a4.27,4.27,0,0,0-4.27,4.27v6.69a1.38,1.38,0,0,0,1.38,1.38h6a1.37,1.37,0,0,0,1.37-1.38v-6.69A4.27,4.27,0,0,0,879.41,419.92Zm2.1,9.44h-3.64v-5a1.52,1.52,0,0,1,1.52-1.52h.6a1.52,1.52,0,0,1,1.52,1.52Z"/><path class="cls-6" d="M863.28,449.69h6a1.38,1.38,0,0,0,1.38-1.38v-6.69a4.27,4.27,0,0,0-4.27-4.27h-.17a4.27,4.27,0,0,0-4.27,4.27v6.69A1.38,1.38,0,0,0,863.28,449.69Zm3-9.44h.6a1.51,1.51,0,0,1,1.51,1.52v5H864.8v-5A1.52,1.52,0,0,1,866.32,440.25Z"/><path class="cls-6" d="M879.41,437.35h-.17a4.27,4.27,0,0,0-4.27,4.27v6.69a1.38,1.38,0,0,0,1.38,1.38h6a1.37,1.37,0,0,0,1.37-1.38v-6.69A4.27,4.27,0,0,0,879.41,437.35Zm2.1,9.44h-3.64v-5a1.52,1.52,0,0,1,1.52-1.52h.6a1.52,1.52,0,0,1,1.52,1.52Z"/><path class="cls-6" d="M863.28,467.85h6a1.38,1.38,0,0,0,1.38-1.38v-6.7a4.27,4.27,0,0,0-4.27-4.27h-.17a4.27,4.27,0,0,0-4.27,4.27v6.7A1.38,1.38,0,0,0,863.28,467.85Zm3-9.45h.6a1.51,1.51,0,0,1,1.51,1.52v5H864.8v-5A1.52,1.52,0,0,1,866.32,458.4Z"/><path class="cls-6" d="M879.41,455.5h-.17a4.27,4.27,0,0,0-4.27,4.27v6.7a1.38,1.38,0,0,0,1.38,1.38h6a1.37,1.37,0,0,0,1.37-1.38v-6.7A4.27,4.27,0,0,0,879.41,455.5Zm2.1,9.44h-3.64v-5a1.52,1.52,0,0,1,1.52-1.52h.6a1.52,1.52,0,0,1,1.52,1.52Z"/><path class="cls-6" d="M953.32,432.26h6a1.38,1.38,0,0,0,1.38-1.38v-6.69a4.27,4.27,0,0,0-4.27-4.27h-.17a4.27,4.27,0,0,0-4.27,4.27v6.69A1.37,1.37,0,0,0,953.32,432.26Zm2.32-9.44h.6a1.52,1.52,0,0,1,1.52,1.52v5h-3.63v-5A1.51,1.51,0,0,1,955.64,422.82Z"/><path class="cls-6" d="M938.88,424.19v6.69a1.37,1.37,0,0,0,1.37,1.38h6a1.38,1.38,0,0,0,1.38-1.38v-6.69a4.27,4.27,0,0,0-4.27-4.27h-.17A4.27,4.27,0,0,0,938.88,424.19Zm5.8.15v5h-3.63v-5a1.52,1.52,0,0,1,1.52-1.52h.6A1.51,1.51,0,0,1,944.68,424.34Z"/><path class="cls-6" d="M956.39,437.35h-.17a4.27,4.27,0,0,0-4.27,4.27v6.69a1.37,1.37,0,0,0,1.37,1.38h6a1.38,1.38,0,0,0,1.38-1.38v-6.69A4.27,4.27,0,0,0,956.39,437.35Zm1.37,9.44h-3.63v-5a1.51,1.51,0,0,1,1.51-1.52h.6a1.52,1.52,0,0,1,1.52,1.52Z"/><path class="cls-6" d="M943.32,437.35h-.17a4.27,4.27,0,0,0-4.27,4.27v6.69a1.37,1.37,0,0,0,1.37,1.38h6a1.38,1.38,0,0,0,1.38-1.38v-6.69A4.27,4.27,0,0,0,943.32,437.35Zm1.36,9.44h-3.63v-5a1.52,1.52,0,0,1,1.52-1.52h.6a1.51,1.51,0,0,1,1.51,1.52Z"/><path class="cls-6" d="M956.39,455.5h-.17a4.27,4.27,0,0,0-4.27,4.27v6.7a1.37,1.37,0,0,0,1.37,1.38h6a1.38,1.38,0,0,0,1.38-1.38v-6.7A4.27,4.27,0,0,0,956.39,455.5Zm1.37,9.44h-3.63v-5a1.51,1.51,0,0,1,1.51-1.52h.6a1.52,1.52,0,0,1,1.52,1.52Z"/><path class="cls-6" d="M943.32,455.5h-.17a4.27,4.27,0,0,0-4.27,4.27v6.7a1.37,1.37,0,0,0,1.37,1.38h6a1.38,1.38,0,0,0,1.38-1.38v-6.7A4.27,4.27,0,0,0,943.32,455.5Zm1.36,9.44h-3.63v-5a1.52,1.52,0,0,1,1.52-1.52h.6a1.51,1.51,0,0,1,1.51,1.52Z"/><path class="cls-6" d="M906.43,389a4.85,4.85,0,1,0,4.85-4.84A4.86,4.86,0,0,0,906.43,389Zm6.94,0a2.09,2.09,0,1,1-2.09-2.09A2.1,2.1,0,0,1,913.37,389Z"/><path class="cls-6" d="M902.37,401.76h9.3a1.39,1.39,0,0,0,1.27-.73,1.46,1.46,0,0,0-1.27-2.17h-9.31a1.4,1.4,0,0,0-1.27.73A1.47,1.47,0,0,0,902.37,401.76Z"/><path class="cls-6" d="M885.1,411.2h3.2a1.4,1.4,0,0,0,1.27-.73,1.46,1.46,0,0,0-1.28-2.17h-3.2a1.4,1.4,0,0,0-1.27.73A1.47,1.47,0,0,0,885.1,411.2Z"/><path class="cls-6" d="M880.26,414.83h8.17a1.4,1.4,0,0,0,1.27-.73,1.47,1.47,0,0,0-1.28-2.17h-8.17a1.4,1.4,0,0,0-1.27.73A1.47,1.47,0,0,0,880.26,414.83Z"/><path class="cls-6" d="M934.27,411.2h3.2a1.4,1.4,0,0,0,1.27-.73,1.46,1.46,0,0,0-1.28-2.17h-3.2A1.4,1.4,0,0,0,933,409,1.46,1.46,0,0,0,934.27,411.2Z"/><path class="cls-6" d="M934.13,414.83h8.18a1.4,1.4,0,0,0,1.27-.73,1.47,1.47,0,0,0-1.28-2.17h-8.16a1.47,1.47,0,0,0-1.28,2.17A1.4,1.4,0,0,0,934.13,414.83Z"/><path class="cls-6" d="M866.42,468.57H860a1.4,1.4,0,0,0-1.27.73,1.48,1.48,0,0,0,1.28,2.18h6.43a1.41,1.41,0,0,0,1.27-.74A1.47,1.47,0,0,0,866.42,468.57Z"/><path class="cls-6" d="M869.81,468.64a1.35,1.35,0,0,0-1,.4,1.36,1.36,0,0,0,0,1.95,1.35,1.35,0,0,0,1,.4,1.38,1.38,0,0,0,1-.4,1.39,1.39,0,0,0,0-1.95A1.38,1.38,0,0,0,869.81,468.64Z"/><path class="cls-6" d="M916.41,419.19h2.53a1.39,1.39,0,0,0,1.27-.73,1.46,1.46,0,0,0-1.28-2.17h-2.51a1.46,1.46,0,0,0-1.28,2.17A1.4,1.4,0,0,0,916.41,419.19Z"/><path class="cls-6" d="M918.61,422.82h2.54a1.4,1.4,0,0,0,1.27-.73,1.47,1.47,0,0,0-1.28-2.17h-2.52a1.47,1.47,0,0,0-1.28,2.17A1.4,1.4,0,0,0,918.61,422.82Z"/><path class="cls-6" d="M901.72,434.44h2.52a1.39,1.39,0,0,0,1.27-.73,1.46,1.46,0,0,0-1.27-2.17h-2.53a1.4,1.4,0,0,0-1.27.73A1.46,1.46,0,0,0,901.72,434.44Z"/><path class="cls-6" d="M950.59,437.35h2.53a1.41,1.41,0,0,0,1.27-.74,1.47,1.47,0,0,0-1.28-2.17h-2.53a1.41,1.41,0,0,0-1.27.73A1.48,1.48,0,0,0,950.59,437.35Z"/></g><path class="cls-6" d="M1534.78,535.15h-26.72V508.6a6.09,6.09,0,0,0-6.09-6.09h-44.39a6.09,6.09,0,0,0-6.09,6.09v26.55h-26.6a6.17,6.17,0,1,0-.11,12.33h2v70.79a6.09,6.09,0,0,0,6.09,6.09h2.32a6.1,6.1,0,0,0,6.1-6.09v-1.89h76.88v1.89a6.09,6.09,0,0,0,6.09,6.09h2.32a6.09,6.09,0,0,0,6.09-6.09V547.48h2a6.17,6.17,0,1,0,.11-12.33Zm-76.91-28.29h44.54a2,2,0,0,1,2,2v26.26h-48.6V508.89A2,2,0,0,1,1457.87,506.86ZM1435,620h-1.74a2,2,0,0,1-2-2V546.75H1437V618A2,2,0,0,1,1435,620Zm83.27-72.53v8h-76.88v-8Zm-10.16,38.73v9.86h-42.79v-9.86a6.09,6.09,0,0,1,6.09-6.09H1502A6.08,6.08,0,0,1,1508.06,586.21Zm-16,21.47V612h-24.66v-4.35Zm-28.58-3.63a2.17,2.17,0,0,1-1.91-2.93,2.09,2.09,0,0,1,2-1.42h46.51a2.08,2.08,0,0,1,2,1.42,2.17,2.17,0,0,1-1.91,2.93Zm21.21-28.29.6-.58a2,2,0,0,0,0-2.8,2.11,2.11,0,0,0-2.89,0l-3.5,3.4h-7.37a10.5,10.5,0,0,0-4.11.85v-16.8h24.66v16Zm-43.4-16.68h22.48v20.37a9.63,9.63,0,0,0-2.17,6V596a6,6,0,0,0-4.26,6.76,6.4,6.4,0,0,0,6.43,5.05V612h-22.48ZM1496.46,612V608.4h14a6,6,0,0,0,5.9-5.07,6.13,6.13,0,0,0-3.9-6.79V586a10.27,10.27,0,0,0-2.55-6.74l4-4.05a2.08,2.08,0,0,0,0-2.86,2,2,0,0,0-2.79,0l-4.37,4.47a9.71,9.71,0,0,0-4.2-1h-6V559.08h21.76V612Zm29.88,8h-1.74a2,2,0,0,1-2-2V546.75h5.8V618A2,2,0,0,1,1526.34,620Zm8.27-76.88H1425.06a2.11,2.11,0,0,1-2-1.45,2.16,2.16,0,0,1,1.92-2.91h109.56a2.08,2.08,0,0,1,2,1.42A2.17,2.17,0,0,1,1534.61,543.13Z"/><path class="cls-6" d="M1465.56,510.49h-2.44a3.65,3.65,0,0,0-3.65,3.65v13a3.65,3.65,0,0,0,1.07,2.59,3.69,3.69,0,0,0,2.58,1.07h2.44a6.07,6.07,0,0,0,4.51-10.16,6.06,6.06,0,0,0-4.51-10.15Zm-1.74,4.35H1466a2.08,2.08,0,0,1,1.91,1.16,2.19,2.19,0,0,1-1.94,3.19h-2.18Zm2.21,12.33h-2.21v-4.35H1466a2.19,2.19,0,0,1,1.94,3.19A2.08,2.08,0,0,1,1466,527.17Z"/><path class="cls-6" d="M1485.15,510.79a2.2,2.2,0,0,0-3.2,1.95v12.09a2,2,0,0,1-1.14,1.88,2.19,2.19,0,0,1-3.21-1.93V512.7a2.09,2.09,0,0,0-1.16-1.91,2.2,2.2,0,0,0-3.19,1.95V524.8a6.26,6.26,0,0,0,3.86,5.83,6.57,6.57,0,0,0,9.2-6V512.7A2.09,2.09,0,0,0,1485.15,510.79Z"/><path class="cls-6" d="M1494,518.76a2,2,0,1,1,1.44-3.46,1.75,1.75,0,0,1,.46.73,2,2,0,0,0,3.9-1.17,5.88,5.88,0,0,0-1.47-2.42,6.23,6.23,0,0,0-8.6,0,6,6,0,0,0-1.82,4.32,6.09,6.09,0,0,0,6.09,6.09,2,2,0,0,1,2,2,1.91,1.91,0,0,1-.62,1.44,2,2,0,0,1-2.84,0,2,2,0,0,1-.47-.73,2,2,0,1,0-3.89,1.16,5.66,5.66,0,0,0,1.47,2.42,6.09,6.09,0,1,0,4.32-10.37Z"/><path class="cls-6" d="M1447.28,573.59a2,2,0,0,0,1.44-.6l6.09-6.09a2,2,0,0,0-2.87-2.87l-6.09,6.09a2,2,0,0,0,1.43,3.47Z"/><path class="cls-6" d="M1478.34,564l-6.09,6.09a2,2,0,1,0,2.87,2.87l6.09-6.09a2,2,0,0,0-2.87-2.87Z"/><path class="cls-6" d="M1506.77,564l-6.09,6.09a2,2,0,1,0,2.87,2.87l6.1-6.09a2,2,0,0,0-2.88-2.87Z"/><path class="cls-6" d="M1458.87,572.15a2,2,0,0,0-2.87,0l-10.15,10.16a2,2,0,0,0,.9,3.42,2,2,0,0,0,2-.55L1458.87,575A2,2,0,0,0,1458.87,572.15Z"/><path class="cls-6" d="M637,99c0-8.6-5.15-16.57-14.14-21.87L621,76l-1.86,1.1C610.15,82.4,605,90.37,605,99s5.1,16.48,14,21.78v20.06a2.13,2.13,0,0,0,1.52,2.1,2,2,0,0,0,2.48-2.08V120.75C631.9,115.45,637,107.52,637,99Zm-28,0c0-6.54,4.37-12.72,12-17,7.63,4.24,12,10.42,12,17,0,5.93-3.63,11.55-10,15.72V107l5.31-5.3A2.11,2.11,0,0,0,628.6,99a2,2,0,0,0-3-.22L623,101.35v-5a2.11,2.11,0,0,0-1.71-2.14,2,2,0,0,0-2.29,2v5.18l-2.48-2.48a2.1,2.1,0,0,0-2.72-.3,2,2,0,0,0-.21,3L619,107v7.65C612.63,110.48,609,104.86,609,98.93Z"/><path class="cls-6" d="M646.86,131,645,129.86l-1.86,1.1c-9,5.3-14.14,13.27-14.14,21.87s5.1,16.48,14,21.78v20.06a2.11,2.11,0,0,0,1.52,2.09,2,2,0,0,0,2.48-2.07V174.61c8.9-5.3,14-13.23,14-21.78S655.85,136.26,646.86,131Zm.14,37.56v-7.65l5.31-5.31a2.1,2.1,0,0,0,.29-2.71,2,2,0,0,0-3-.22L647,155.2v-5a2.11,2.11,0,0,0-1.71-2.14,2,2,0,0,0-2.29,2v5.17l-2.48-2.47a2.1,2.1,0,0,0-2.72-.3,2,2,0,0,0-.21,3l5.41,5.41v7.65c-6.37-4.17-10-9.79-10-15.72,0-6.54,4.37-12.72,12-17,7.63,4.24,12,10.42,12,17C657,158.72,653.37,164.34,647,168.51Z"/><path class="cls-6" d="M692.86,131,691,129.86l-1.86,1.1c-9,5.3-14.14,13.27-14.14,21.87s5.1,16.48,14,21.78v20.06a2.11,2.11,0,0,0,1.52,2.09,2,2,0,0,0,2.48-2.07V174.61c8.9-5.3,14-13.23,14-21.78S701.85,136.26,692.86,131Zm.14,37.56v-7.65l5.31-5.31a2.1,2.1,0,0,0,.29-2.71,2,2,0,0,0-3-.22L693,155.2v-5a2.11,2.11,0,0,0-1.71-2.14,2,2,0,0,0-2.29,2v5.17l-2.48-2.47a2.1,2.1,0,0,0-2.72-.3,2,2,0,0,0-.21,3l5.41,5.41v7.65c-6.37-4.17-10-9.79-10-15.72,0-6.54,4.37-12.72,12-17,7.63,4.24,12,10.42,12,17C703,158.72,699.37,164.34,693,168.51Z"/><path class="cls-6" d="M731,99c0-8.6-5.16-16.57-14.14-21.87L715,76l-1.86,1.1C704.15,82.4,699,90.37,699,99s5.1,16.48,14,21.78v20.06a2.13,2.13,0,0,0,1.52,2.1,2,2,0,0,0,2.48-2.08V120.75C725.9,115.45,731,107.52,731,99Zm-14,15.67V107l5.31-5.31A2.11,2.11,0,0,0,722.6,99a2,2,0,0,0-3-.21L717,101.35v-5a2.1,2.1,0,0,0-1.71-2.13,2,2,0,0,0-2.29,2v5.18l-2.48-2.48a2.1,2.1,0,0,0-2.72-.3,2,2,0,0,0-.21,3L713,107v7.65c-6.37-4.17-10-9.79-10-15.72,0-6.54,4.37-12.72,12-17,7.63,4.24,12,10.42,12,17C727,104.86,723.37,110.48,717,114.64Z"/><path class="cls-6" d="M684,99c0-8.6-5.15-16.57-14.14-21.87L668,76l-1.86,1.1C657.15,82.4,652,90.37,652,99s5.1,16.48,14,21.78v20.06a2.13,2.13,0,0,0,1.52,2.1,2,2,0,0,0,2.48-2.08V120.75C678.9,115.45,684,107.52,684,99Zm-28,0c0-6.54,4.37-12.72,12-17,7.63,4.24,12,10.42,12,17,0,5.93-3.63,11.55-10,15.72V107l5.31-5.3A2.11,2.11,0,0,0,675.6,99a2,2,0,0,0-3-.22L670,101.35v-5a2.11,2.11,0,0,0-1.71-2.14,2,2,0,0,0-2.29,2v5.18l-2.48-2.48a2.1,2.1,0,0,0-2.72-.3,2,2,0,0,0-.21,3L666,107v7.65C659.63,110.48,656,104.86,656,98.93Z"/><path class="cls-6" d="M1144,98c0-8.6-5.15-16.57-14.14-21.87L1128,75l-1.86,1.1c-9,5.3-14.14,13.27-14.14,21.87s5.1,16.48,14,21.78v20.06a2.13,2.13,0,0,0,1.52,2.1,2,2,0,0,0,2.48-2.08V119.75C1138.9,114.45,1144,106.52,1144,98Zm-28,0c0-6.54,4.37-12.72,12-17,7.63,4.24,12,10.42,12,17,0,5.93-3.63,11.55-10,15.72V106l5.31-5.3a2.11,2.11,0,0,0,.29-2.72,2,2,0,0,0-3-.22l-2.59,2.59v-5a2.11,2.11,0,0,0-1.71-2.14,2,2,0,0,0-2.29,2v5.18l-2.48-2.48a2.1,2.1,0,0,0-2.72-.3,2,2,0,0,0-.21,3L1126,106v7.65C1119.63,109.48,1116,103.86,1116,97.93Z"/><path class="cls-6" d="M1153.86,130l-1.86-1.09-1.86,1.1c-9,5.3-14.14,13.27-14.14,21.87s5.1,16.48,14,21.78v20.06a2.11,2.11,0,0,0,1.52,2.09,2,2,0,0,0,2.48-2.07V173.61c8.9-5.3,14-13.23,14-21.78S1162.85,135.26,1153.86,130Zm.14,37.56v-7.65l5.31-5.31a2.1,2.1,0,0,0,.29-2.71,2,2,0,0,0-3-.22L1154,154.2v-5a2.11,2.11,0,0,0-1.71-2.14,2,2,0,0,0-2.29,2v5.17l-2.48-2.47a2.1,2.1,0,0,0-2.72-.3,2,2,0,0,0-.21,3l5.41,5.41v7.65c-6.37-4.17-10-9.79-10-15.72,0-6.54,4.37-12.72,12-17,7.63,4.24,12,10.42,12,17C1164,157.72,1160.37,163.34,1154,167.51Z"/><path class="cls-6" d="M1199.86,130l-1.86-1.09-1.86,1.1c-9,5.3-14.14,13.27-14.14,21.87s5.1,16.48,14,21.78v20.06a2.11,2.11,0,0,0,1.52,2.09,2,2,0,0,0,2.48-2.07V173.61c8.9-5.3,14-13.23,14-21.78S1208.85,135.26,1199.86,130Zm.14,37.56v-7.65l5.31-5.31a2.1,2.1,0,0,0,.29-2.71,2,2,0,0,0-3-.22L1200,154.2v-5a2.11,2.11,0,0,0-1.71-2.14,2,2,0,0,0-2.29,2v5.17l-2.48-2.47a2.1,2.1,0,0,0-2.72-.3,2,2,0,0,0-.21,3l5.41,5.41v7.65c-6.37-4.17-10-9.79-10-15.72,0-6.54,4.37-12.72,12-17,7.63,4.24,12,10.42,12,17C1210,157.72,1206.37,163.34,1200,167.51Z"/><path class="cls-6" d="M1238,98c0-8.6-5.16-16.57-14.14-21.87L1222,75l-1.86,1.1c-9,5.3-14.14,13.27-14.14,21.87s5.1,16.48,14,21.78v20.06a2.13,2.13,0,0,0,1.52,2.1,2,2,0,0,0,2.48-2.08V119.75C1232.9,114.45,1238,106.52,1238,98Zm-14,15.67V106l5.31-5.31a2.11,2.11,0,0,0,.29-2.72,2,2,0,0,0-3-.21l-2.59,2.59v-5a2.1,2.1,0,0,0-1.71-2.13,2,2,0,0,0-2.29,2v5.18l-2.48-2.48a2.1,2.1,0,0,0-2.72-.3,2,2,0,0,0-.21,3L1220,106v7.65c-6.37-4.17-10-9.79-10-15.72,0-6.54,4.37-12.72,12-17,7.63,4.24,12,10.42,12,17C1234,103.86,1230.37,109.48,1224,113.64Z"/><path class="cls-6" d="M1191,98c0-8.6-5.15-16.57-14.14-21.87L1175,75l-1.86,1.1c-9,5.3-14.14,13.27-14.14,21.87s5.1,16.48,14,21.78v20.06a2.13,2.13,0,0,0,1.52,2.1,2,2,0,0,0,2.48-2.08V119.75C1185.9,114.45,1191,106.52,1191,98Zm-28,0c0-6.54,4.37-12.72,12-17,7.63,4.24,12,10.42,12,17,0,5.93-3.63,11.55-10,15.72V106l5.31-5.3a2.11,2.11,0,0,0,.29-2.72,2,2,0,0,0-3-.22l-2.59,2.59v-5a2.11,2.11,0,0,0-1.71-2.14,2,2,0,0,0-2.29,2v5.18l-2.48-2.48a2.1,2.1,0,0,0-2.72-.3,2,2,0,0,0-.21,3L1173,106v7.65C1166.63,109.48,1163,103.86,1163,97.93Z"/><g class="cls-10"><path class="cls-6" d="M1527.71,232.1c-1.29,1-2.45,2.14-3.93,3.49V221.06c3.08.37,3.75-1.31,3.54-3.83a22.73,22.73,0,0,1,0-3.69c.15-2.24-.77-3.21-3.07-3.17-4,.1-7.9,0-11.86,0-6.54.08-6.36-1.17-6.41,6.35,0,2.52.13,4.65,3.52,4.39,0,8.68-.11,17.11.07,25.54,0,2.56-1.24,3.73-3.37,5.13-.08-1.19-.18-2-.18-2.84,0-4.75,0-9.49-.06-14.24a9.79,9.79,0,0,0-1-3,12.65,12.65,0,0,0-2.9,1.35c-1.69,1.39-3.2,3-4.82,4.48-2.16,2-4.33,3.93-6.81,6.18V220.68c2.91.31,3.58-1.22,3.4-3.59a30.71,30.71,0,0,1,0-4.29c.12-2.22-.9-3-3.07-3-5.3.09-10.6,0-15.89,0-6.74,0-6.34-.7-6.42,6.37,0,2.69.09,4.94,3.77,4.55,0,4.64-.11,9,0,13.39a6.22,6.22,0,0,1-2.43,5.49c-4.6,3.95-9,8.17-13.72,12.57-.07-1.17-.14-1.84-.14-2.51,0-5,.06-10-.06-15a4.13,4.13,0,0,0-1.2-2.94c-.44-.35-1.89.35-2.77.8a31.55,31.55,0,0,0-3.28,2.23v-14c3.43.28,3.88-1.75,3.61-4.41a15.75,15.75,0,0,1,0-3.22c.25-2.42-.72-3.41-3.23-3.33-3.94.13-7.9,0-11.85,0-7.4.05-6.46-.86-6.58,6.63,0,2.44,0,4.67,3.59,4.21,0,6.62-.25,13,.09,19.31.2,3.84-.79,6.51-4.34,8.17-2.37,1.07-3.05,3-3,5.63.15,13.41.07,26.82.07,40.24,0,3.79.1,3.89,4,3.89h95.93c3.88,0,4-.11,4-4.08V235.37a14.79,14.79,0,0,0,0-1.88C1530.53,231.39,1529.36,230.84,1527.71,232.1Zm-18.06-18.33h14.13V217h-14.13Zm10.93,24.53c0,.72-.8,1.53-1.39,2.15-1.7,1.67-3.5,3.25-5.68,5.27V220.84h7.13C1520.64,226.73,1520.69,232.51,1520.58,238.3Zm-48.83-24.53h17.93c.06,1.09.1,2,.16,3.21h-18.09Zm9.61,23.3a11.52,11.52,0,0,0,0-2.69c-.23-1-.57-2.3-1.3-2.64s-1.92.54-2.85.91a10.71,10.71,0,0,0-1.56,1.19v-13h10.92V243c0,4.83-.54,5.8-5.14,8.77Zm-47.94-23.3H1448V217h-14.41C1433.52,216,1433.48,215,1433.42,213.77Zm11.46,22.64a2,2,0,0,1-.19.75,1.93,1.93,0,0,1-.45.62c-2,1.52-4.13,3-6.54,4.67V220.84h7.2C1444.9,226.1,1444.92,231.26,1444.88,236.41Zm82.76,57.66h-97.06c0-.8-.14-1.57-.14-2.35,0-12.42,0-24.85,0-37.27a4,4,0,0,1,.43-2.14,4,4,0,0,1,1.48-1.58c6.4-4.46,12.71-9.06,19.53-13.94v13.45c0,1.7-.11,3.41,0,5.09a12.89,12.89,0,0,0,1,2.84c1-.39,2.23-.54,3-1.21,3.07-2.68,6-5.55,9-8.34l12.05-11.27v5.81c0,4.1-.07,8.2,0,12.29a10.4,10.4,0,0,0,1,3.11c1-.42,2.28-.6,3-1.3,7.06-6.44,14-13,21.57-20v4.6c0,4.47,0,8.93,0,13.41a10.41,10.41,0,0,0,.88,2.89c1-.38,2.28-.49,3-1.17,6.35-5.77,12.6-11.65,18.89-17.48.57-.54,1.17-1.08,2.22-2Z"/><path class="cls-6" d="M1482.52,204.57c.64-2.72,2.41-3.55,4.89-3.57,2.14,0,4.29.11,6.44-.08a5,5,0,0,0,4.9-5.3,5.38,5.38,0,0,0-5-5.29q-1.87-.09-3.75,0a11.28,11.28,0,0,0-3.19.07c-.83.25-1.46,1.11-2.18,1.7.69.63,1.33,1.7,2.1,1.81,1.93.26,3.93-.08,5.86.18.88.11,1.66,1.07,2.48,1.64-.81.61-1.56,1.61-2.43,1.74-2.47.29-5,.06-7.47.3a6.61,6.61,0,0,0-4.13,1.92,6.53,6.53,0,0,0-1.91,4.13c0,.83.85,1.69,1.32,2.54C1481.15,205.76,1482.35,205.29,1482.52,204.57Z"/><path class="cls-6" d="M1442.77,204.68c.7-3,2.68-3.75,5.36-3.7a47,47,0,0,0,6.17-.1,5,5,0,0,0,3.42-1.64,5,5,0,0,0,1.28-3.59,5.23,5.23,0,0,0-4.7-5.28,29.33,29.33,0,0,0-3.75,0v-.09a13.81,13.81,0,0,0-3.47.07c-.81.23-1.46,1.12-2.17,1.71.71.63,1.35,1.69,2.15,1.8,1.84.27,3.76-.1,5.61.17,1,.15,1.88,1.08,2.82,1.65-.92.61-1.79,1.61-2.77,1.75-2.47.31-5,0-7.51.32a6.5,6.5,0,0,0-5.71,6.13c0,.82.89,1.65,1.36,2.48C1441.52,205.8,1442.61,205.35,1442.77,204.68Z"/><path class="cls-6" d="M1527.88,190.34a20.81,20.81,0,0,0-5.05,0c-.81.12-1.5,1.07-2.24,1.65.77.65,1.46,1.64,2.34,1.86,1.25.32,2.68-.13,4,.17.89.21,1.61,1.13,2.41,1.73-.75.58-1.45,1.52-2.29,1.65-1.83.29-3.75.06-5.59.25a6.69,6.69,0,0,0-6.32,6.43c0,.73.85,1.51,1.31,2.26.7-.51,1.92-.92,2-1.54.58-3.22,2.72-3.87,5.47-3.82a33.51,33.51,0,0,0,4-.06,5.28,5.28,0,0,0,5-5.29,5.45,5.45,0,0,0-5-5.31Z"/><path class="cls-6" d="M1520.6,283.84a46.58,46.58,0,0,0-7.47,0,2.35,2.35,0,0,0-1.5,1.75,2.4,2.4,0,0,0,1.55,1.7l.45.08a22.31,22.31,0,0,0,3.27,0,19.41,19.41,0,0,0,3,0,1.86,1.86,0,0,0,.41-.08c.7-.17,1.66-1,1.7-1.61A2.45,2.45,0,0,0,1520.6,283.84Z"/><path class="cls-6" d="M1437.37,265.64a52.35,52.35,0,0,0,7.72,0,2.31,2.31,0,0,0,1.39-1.82c-.06-.58-1-1.38-1.73-1.55a15.32,15.32,0,0,0-3.46-.07,16.45,16.45,0,0,0-3.72.08,2.5,2.5,0,0,0-1,.69,2.59,2.59,0,0,0-.55,1A2.1,2.1,0,0,0,1437.37,265.64Z"/><path class="cls-6" d="M1463,265.74a10.84,10.84,0,0,0,3.18.08,14.86,14.86,0,0,0,3.72-.09c.74-.19,1.27-1.18,1.89-1.82-.68-.57-1.32-1.55-2-1.61a33.69,33.69,0,0,0-6.66,0c-.7.07-1.32,1.07-2,1.65C1461.75,264.56,1462.27,265.49,1463,265.74Z"/><path class="cls-6" d="M1495,262.27a2.49,2.49,0,0,0-.37-.09,16.48,16.48,0,0,0-2.81,0,25.49,25.49,0,0,0-3.27,0l-.45.07c-.66.15-1.61,1.08-1.61,1.61s.88,1.73,1.44,1.77a44.13,44.13,0,0,0,7.45,0c.6,0,1.11-1.14,1.66-1.75C1496.33,263.35,1495.74,262.5,1495,262.27Z"/><path class="cls-6" d="M1491.78,262.2a16.48,16.48,0,0,1,2.81,0,16.48,16.48,0,0,0-2.81,0,25.49,25.49,0,0,0-3.27,0A25.49,25.49,0,0,1,1491.78,262.2Z"/><path class="cls-6" d="M1513.42,262.28c-.68.07-1.27,1.1-1.9,1.7.63.61,1.17,1.52,1.92,1.76a10.86,10.86,0,0,0,3.18.07,12,12,0,0,0,3.45-.08c.82-.26,1.41-1.24,2.1-1.9-.69-.54-1.35-1.51-2.09-1.58A33.68,33.68,0,0,0,1513.42,262.28Z"/><path class="cls-6" d="M1444.79,276.71a47.8,47.8,0,0,0-7.18,0,2.3,2.3,0,0,0-1.55,1.61,2.49,2.49,0,0,0,1.56,1.65,14.12,14.12,0,0,0,3.45.08,14.7,14.7,0,0,0,3.7-.08c.72-.19,1.24-1.18,1.84-1.8C1446,277.69,1445.43,276.76,1444.79,276.71Z"/><path class="cls-6" d="M1495,283.82a37.86,37.86,0,0,0-6.9,0c-.63.06-1.73,1.18-1.61,1.61a2.8,2.8,0,0,0,.64,1.12,2.94,2.94,0,0,0,1.06.74,2.59,2.59,0,0,0,.4.09,19.16,19.16,0,0,0,3,0,19.16,19.16,0,0,0,3,0,2.88,2.88,0,0,0,.4-.09c.76-.21,1.32-1.15,2-1.76C1496.33,284.93,1495.71,283.88,1495,283.82Z"/><path class="cls-6" d="M1445.2,269.55a62.33,62.33,0,0,0-8,0c-.46,0-1.22,1.13-1.19,1.7a2.22,2.22,0,0,0,.52,1,2.11,2.11,0,0,0,.9.59,19.2,19.2,0,0,0,3.72.07,17.06,17.06,0,0,0,3.72-.07,2.66,2.66,0,0,0,1-.65,2.57,2.57,0,0,0,.61-1C1446.61,270.71,1445.7,269.6,1445.2,269.55Z"/><path class="cls-6" d="M1463.08,272.82l.37.08a14.66,14.66,0,0,0,2.81,0,25.49,25.49,0,0,0,3.27,0,3.5,3.5,0,0,0,.45-.07c.69-.15,1.67-1,1.7-1.56a2.32,2.32,0,0,0-1.46-1.77,47.39,47.39,0,0,0-7.44,0c-.59,0-1.08,1.1-1.64,1.7C1461.78,271.74,1462.33,272.62,1463.08,272.82Z"/><path class="cls-6" d="M1466.26,272.9a14.66,14.66,0,0,1-2.81,0,16.48,16.48,0,0,0,2.81,0,25.49,25.49,0,0,0,3.27,0A25.49,25.49,0,0,1,1466.26,272.9Z"/><path class="cls-6" d="M1488.31,272.84a14.13,14.13,0,0,0,3.45.07,14.69,14.69,0,0,0,3.45-.07c.69-.17,1.65-1,1.66-1.6a2.36,2.36,0,0,0-1.51-1.75,48.63,48.63,0,0,0-7.44,0c-.57,0-1.07,1.13-1.61,1.74C1487,271.79,1487.56,272.65,1488.31,272.84Z"/><path class="cls-6" d="M1462.53,280a55,55,0,0,0,7.7,0,2.29,2.29,0,0,0,1.45-1.73c0-.56-1-1.36-1.71-1.53l-.42-.07a21.89,21.89,0,0,0-3,0,17.06,17.06,0,0,0-3.72.07,2.55,2.55,0,0,0-1,.65,2.6,2.6,0,0,0-.59,1C1461.13,278.82,1462,279.92,1462.53,280Z"/><path class="cls-6" d="M1466.5,276.65a21.89,21.89,0,0,1,3,0,21.89,21.89,0,0,0-3,0,17,17,0,0,0-3.72.08A17.11,17.11,0,0,1,1466.5,276.65Z"/><path class="cls-6" d="M1487.75,280a54.82,54.82,0,0,0,7.69,0,2.31,2.31,0,0,0,1.43-1.76c-.07-.55-1.08-1.34-1.76-1.5a15.73,15.73,0,0,0-3.44-.07,17,17,0,0,0-3.71.08,2.45,2.45,0,0,0-1,.65,2.61,2.61,0,0,0-.56,1C1486.35,278.85,1487.24,279.93,1487.75,280Z"/><path class="cls-6" d="M1470.09,283.81a43.4,43.4,0,0,0-7.21,0c-.62.05-1.71,1.19-1.61,1.61a2.87,2.87,0,0,0,1.69,1.88,3.91,3.91,0,0,0,.83.15c.85.07,1.76-.07,2.62-.07s1.78.13,2.63.07a4.64,4.64,0,0,0,.83-.14c.76-.22,1.31-1.15,2-1.77C1471.24,284.92,1470.71,283.86,1470.09,283.81Z"/><path class="cls-6" d="M1520.58,269.5a46.08,46.08,0,0,0-7.43,0c-.59,0-1.61,1.27-1.5,1.67a2.9,2.9,0,0,0,.72,1,3,3,0,0,0,1.09.65c.12,0,.24.07.37.09a18.69,18.69,0,0,0,2.8,0,29.72,29.72,0,0,0,3.27,0,2.14,2.14,0,0,0,.44-.08c.7-.15,1.67-1,1.7-1.57A2.38,2.38,0,0,0,1520.58,269.5Z"/><path class="cls-6" d="M1516.63,272.91a16.36,16.36,0,0,1-2.8,0,16.36,16.36,0,0,0,2.8,0,25.49,25.49,0,0,0,3.27,0A25.49,25.49,0,0,1,1516.63,272.91Z"/><path class="cls-6" d="M1444.68,283.8a31,31,0,0,0-6.67,0c-.75.09-1.38,1.22-2.07,1.87.68.57,1.27,1.41,2,1.64a2.33,2.33,0,0,0,.38.08,16.48,16.48,0,0,0,2.81,0,19.41,19.41,0,0,0,3,0,1.6,1.6,0,0,0,.41-.09c.76-.21,1.32-1.12,2-1.72C1446,285,1445.38,283.88,1444.68,283.8Z"/><path class="cls-6" d="M1441.18,287.36a16.48,16.48,0,0,1-2.81,0,16.48,16.48,0,0,0,2.81,0,19.41,19.41,0,0,0,3,0A19.41,19.41,0,0,1,1441.18,287.36Z"/><path class="cls-6" d="M1513.24,276.72a2.32,2.32,0,0,0-1.61,1.56c-.05.56.83,1.56,1.45,1.71a85.6,85.6,0,0,0,7.4,0,2.43,2.43,0,0,0,1.54-1.71,2.35,2.35,0,0,0-1.64-1.58A46,46,0,0,0,1513.24,276.72Z"/></g><g class="cls-11"><path class="cls-6" d="M1540.21,904.57l-29.59-56.49-16.4-31.3L1465,872.52l-3.8-4.6a11.2,11.2,0,0,0-18,1l-23.36,35.82a2.21,2.21,0,0,0-.1,2.26l.73,1.15h117.44a2.57,2.57,0,0,0,1.89-.75A2.47,2.47,0,0,0,1540.21,904.57Zm-46-79.1,11.43,21.82-3.34,3.34-4-4-4,4-4-4-4.05,4-3.33-3.34Zm-68.79,78.59,21.5-33a7.08,7.08,0,0,1,6.21-3.24,7.4,7.4,0,0,1,5.44,2.76l4.74,5.74-4.22,8.06-10.3,19.65Zm54.69,0v-6.79a17.86,17.86,0,0,0,28,0v6.79h-28Zm47.17,0h-15v-6.79a18.53,18.53,0,0,0,14.26,6.79,2.07,2.07,0,0,0,2-1.4,2,2,0,0,0-2-2.65,14.31,14.31,0,0,1-14.21-12.2,14.42,14.42,0,0,0,10,4.11,2.09,2.09,0,0,0,2-1.42,2,2,0,0,0-2-2.63,10.2,10.2,0,0,1-10.25-10.12v0a10.27,10.27,0,0,0,6.13,2.08,2,2,0,1,0,0-4,6.12,6.12,0,0,1-6.15-6.05,2.05,2.05,0,0,0-4.1,0,6.12,6.12,0,0,1-6.13,6.07,2.08,2.08,0,0,0-2.07,1.89,2,2,0,0,0,2,2.16,10.29,10.29,0,0,0,6.16-2.08v.2a10,10,0,0,1-9.9,10,2.11,2.11,0,0,0-2.08,1.62,2,2,0,0,0,2,2.39,14,14,0,0,0,9.86-4.07,14,14,0,0,1-27.73,0,14,14,0,0,0,9.71,4.07,2.09,2.09,0,0,0,2.15-1.94,2,2,0,0,0-2-2.06,10,10,0,0,1-10-10v-.2a10.27,10.27,0,0,0,6.13,2.08,2,2,0,1,0,0-4,6.12,6.12,0,0,1-6.15-6.05,2.05,2.05,0,0,0-4.1,0,6.12,6.12,0,0,1-6.13,6.07,2.08,2.08,0,0,0-2.07,1.89,2,2,0,0,0,2,2.16,10.28,10.28,0,0,0,6.15-2.08v0a10.2,10.2,0,0,1-10.2,10.12,2.09,2.09,0,0,0-2,1.36,2,2,0,0,0,1.94,2.69,14.38,14.38,0,0,0,10.1-4.11,14.29,14.29,0,0,1-14.18,12.2,2.06,2.06,0,0,0-2,1.37,2,2,0,0,0,1.94,2.68,18.51,18.51,0,0,0,14.36-6.79v6.79h-23.27l28.15-53,5.37,5.31,4.1-4.05,4.11,4.05,4.1-4.05,4.1,4.05,5.37-5.31,28.15,53Z"/><path class="cls-6" d="M1445.65,833.25a16.19,16.19,0,1,0-16.2-16.19A16.21,16.21,0,0,0,1445.65,833.25Zm0-28.34a12.15,12.15,0,1,1-12.15,12.15A12.16,12.16,0,0,1,1445.65,804.91Z"/><path class="cls-6" d="M1512.43,823.13a8.92,8.92,0,0,1,8.91,8.91,2,2,0,0,0,4.05,0,5.27,5.27,0,0,1,5.26-5.27,2,2,0,0,0,0-4,9.26,9.26,0,0,0-6.87,3.08,13,13,0,0,0-11.35-6.72,2,2,0,0,0,0,4Z"/></g><g class="cls-12"><path class="cls-6" d="M1583.43,345.58l-7.3-.36c-7.11-.36-13.4,3.22-17.43,6.28a24.28,24.28,0,0,0-5.35,5.82c-2.84,4.15-9.75,8.72-12.54,10.47l-1.16-1.74a2.75,2.75,0,0,0-3.77-.78l-10.13,6.51a2.7,2.7,0,0,0-1.23,2.54,2.67,2.67,0,0,0,.48,1.23l.65,1-3.56,2.29a2.41,2.41,0,0,0-.84.87,2.28,2.28,0,0,0,.11,2.34l3.42,5.15a2.3,2.3,0,0,0,1.47,1,2.61,2.61,0,0,0,.48.05,2.38,2.38,0,0,0,1.27-.37l3.07-2a46.34,46.34,0,0,1,2.82,8.4h-4.56v15.88c0,13.23-8.72,17.92-10.46,18.72l-.07.05h-4.87V432h60.82v-3.08h-5.52c-1.52-.79-9.11-5.38-9.11-18.76V394.27h-5.29a18.28,18.28,0,0,0,4.06-8l.21-1-1.14-.66a47.33,47.33,0,0,1-10-7.74l1.5-1.15a38.16,38.16,0,0,0,7.46-8c5.31-7.43,15.24-11.6,18.15-12.7a4.57,4.57,0,0,1,1.83-.29l6.11.3a4.81,4.81,0,0,0,3.45-1.21,4.66,4.66,0,0,0,1.57-3.26A4.75,4.75,0,0,0,1583.43,345.58Zm-53.49,37.64-2.86,1.87-2.73-4.17,3.07-2,.12.17.1.17C1528.45,380.5,1529.22,381.83,1529.94,383.22Zm7,11,.56,0H1537S1537,394.25,1537,394.25Zm27.61,34.67H1557v-4.2a1.52,1.52,0,0,0-1-1.46,1.54,1.54,0,0,0-2.07,1.36v4.3h-3.84v-8.61a1.51,1.51,0,0,0-1-1.45,1.53,1.53,0,0,0-2.07,1.36v8.7h-4.62v-2.81a1.49,1.49,0,0,0-1-1.45,1.53,1.53,0,0,0-2.07,1.36v2.9h-3.85v-4.2a1.54,1.54,0,0,0-3.08-.1v4.3h-8.57c3.79-3,8.57-8.67,8.57-18.65V397.35h13.09v2.82a1.52,1.52,0,0,0,1,1.45,1.54,1.54,0,0,0,2.08-1.37v-2.9h2.31v4.27a1.54,1.54,0,0,0,3.07.08v-4.35H1557v12.92C1557,420.29,1561.24,426,1564.57,428.92Zm-13.92-34.65h-12.19a14.85,14.85,0,0,0,13.78-9.94c1.1.8,2.22,1.56,3.38,2.27A16.09,16.09,0,0,1,1550.65,394.27Zm-.84-11.79a12.16,12.16,0,0,1-5.1,7,12.37,12.37,0,0,1-8.5,1.8,50.81,50.81,0,0,0-2.55-7h0l-.22-.45q-.81-1.76-1.77-3.45l-.15-.27c-.5-.87-1-1.74-1.57-2.59l-2.27-3.47,9.68-6.32,1,1.5,1.29,2c.44.66.9,1.33,1.38,2l.57.77.87,1.12.75.92c.32.38.65.75,1,1.12s.51.58.77.86l.52.56h0A47.8,47.8,0,0,0,1549.81,382.48Zm34.16-31a1.86,1.86,0,0,1-1.32.48l-6-.3a7.28,7.28,0,0,0-3,.47c-3.95,1.51-13.71,5.88-19.29,13.79a35,35,0,0,1-6.8,7.42c-.56.44-1.12.88-1.66,1.28l-.13-.15q-.67-.78-1.29-1.59c-.18-.22-.37-.45-.54-.68-.34-.44-.65-.89-1-1.35l-.51-.72c3-1.91,10.1-6.7,13.2-11.33a21.54,21.54,0,0,1,4.66-5.16c3.6-2.77,9.19-6,15.32-5.71l7.22.36a1.83,1.83,0,0,1,1.14,3.19Z"/></g><g class="cls-13"><path class="cls-6" d="M827.65,844.51l-6.46-.32c-6.3-.31-11.87,2.86-15.43,5.56A21.62,21.62,0,0,0,801,854.9c-2.51,3.68-8.62,7.72-11.1,9.27l-1-1.54a2.43,2.43,0,0,0-3.34-.69l-9,5.76a2.39,2.39,0,0,0-1.09,2.25,2.32,2.32,0,0,0,.42,1.09l.57.87-3.14,2a2.08,2.08,0,0,0-.75.78,2,2,0,0,0,.1,2.06l3,4.56a2,2,0,0,0,1.31.88,2,2,0,0,0,.42,0,2.07,2.07,0,0,0,1.13-.33l2.71-1.75a40.93,40.93,0,0,1,2.5,7.44h-4v14c0,11.71-7.71,15.86-9.26,16.57l-.06,0h-4.31V921H820v-2.73h-4.88c-1.35-.69-8.06-4.76-8.06-16.6v-14h-4.69a16.1,16.1,0,0,0,3.59-7.12l.19-.9-1-.59a42,42,0,0,1-8.89-6.85l1.32-1a33.51,33.51,0,0,0,6.61-7.07c4.7-6.57,13.48-10.26,16.06-11.23a3.89,3.89,0,0,1,1.62-.26l5.41.27a4.29,4.29,0,0,0,3-1.08,4.09,4.09,0,0,0,1.39-2.89A4.2,4.2,0,0,0,827.65,844.51ZM780.3,877.83l-2.53,1.65-2.41-3.69,2.72-1.78.1.15.09.16A39.35,39.35,0,0,1,780.3,877.83Zm6.22,9.75a4,4,0,0,0,.49,0h-.48A0,0,0,0,1,786.52,887.58ZM811,918.27h-6.66v-3.72a1.33,1.33,0,0,0-.89-1.28,1.35,1.35,0,0,0-1.83,1.19v3.81h-3.41v-7.62a1.33,1.33,0,0,0-.89-1.28,1.36,1.36,0,0,0-1.84,1.2v7.7h-4.08v-2.49a1.33,1.33,0,0,0-.89-1.28,1.36,1.36,0,0,0-1.84,1.21v2.56h-3.41v-3.72a1.33,1.33,0,0,0-.89-1.28,1.35,1.35,0,0,0-1.83,1.19v3.81H774.9c3.36-2.62,7.59-7.67,7.59-16.5V890.34h11.58v2.49a1.33,1.33,0,0,0,.89,1.28,1.36,1.36,0,0,0,1.84-1.21v-2.56h2v3.77a1.33,1.33,0,0,0,.89,1.28,1.36,1.36,0,0,0,1.84-1.2v-3.85h2.72v11.43C804.29,910.63,808,915.67,811,918.27Zm-12.32-30.66H787.85a13.17,13.17,0,0,0,12.19-8.8c1,.71,2,1.38,3,2A14.27,14.27,0,0,1,798.63,887.61Zm-.75-10.44a10.69,10.69,0,0,1-4.5,6.19,10.88,10.88,0,0,1-7.53,1.6,44,44,0,0,0-2.26-6.22h0l-.19-.39c-.48-1-1-2.05-1.57-3.05,0-.08-.08-.16-.13-.24-.44-.78-.9-1.54-1.39-2.29l-2-3.08,8.56-5.59.87,1.33,1.14,1.75c.38.59.8,1.17,1.22,1.76l.5.67q.38.49.78,1c.21.27.43.55.66.82s.57.66.87,1,.44.51.67.76l.46.5h0A47,47,0,0,0,797.88,877.17Zm30.24-27.44a1.63,1.63,0,0,1-1.17.42l-5.35-.27a6.62,6.62,0,0,0-2.64.42c-3.49,1.34-12.13,5.21-17.07,12.21a31.12,31.12,0,0,1-6,6.56l-1.46,1.14-.13-.14c-.39-.46-.77-.93-1.14-1.4l-.47-.6c-.3-.4-.58-.8-.86-1.2l-.45-.64c2.67-1.69,8.93-5.93,11.68-10a19.16,19.16,0,0,1,4.12-4.57c3.19-2.46,8.14-5.33,13.57-5.06l6.38.32a1.64,1.64,0,0,1,1.55,1.71A1.68,1.68,0,0,1,828.12,849.73Z"/></g><path class="cls-6" d="M1664,256.89h-.4a26.64,26.64,0,0,0-16.72-6.21c-10,0-16.16,3-16.73,6.21h-.06c0-.06,0,0,0,.12s0,.13-.43.2v7.87l-2.15-2.57-.06,0s0-.05,0-.06h0c-1.18-.95-4.77-.94-7.31,1.59s-3.74,7.16-2.77,8.49l0,0s0,0,.07.06l0,.05,13,12.67v15.42c0,3.73,6.43,6.06,16.78,6.06s16.79-2.33,16.79-6.06V257.35a1.62,1.62,0,0,0,0-.2A2.3,2.3,0,0,0,1664,256.89Zm-17.12-4.34c10,0,14.53,3.06,14.88,4.48-.35,2.39-5,4.84-14.88,4.84s-14.54-2.45-14.89-4.84C1632.34,255.61,1636.82,252.55,1646.88,252.55Zm-25.46,12.78a5,5,0,0,1,4.73-1.52,2.12,2.12,0,0,1,0,1.92,9.93,9.93,0,0,1-2.31,3.46c-2.06,2.05-4.09,2.67-5,2.15A9.89,9.89,0,0,1,1621.42,265.33Zm35.86,38.31v-4.47s-.57-.93-1.08-.93-1.15.93-1.15.93v4.67s.25.18.27.27c-1.09.2-3.26.48-3.26.48v-8.21s-.94-.94-1.45-.94-.79.94-.79.94v8.32l-1.49.06V302.9s-.94-.93-1.45-.93-.79.93-.79.93v1.86c-1,0-2-.05-3-.1v-6.42s-.38-.93-.9-.93-1.34.93-1.34.93v6.25a28.81,28.81,0,0,1-4.47-.77v-12s-.2-.93-.72-.93-.78.93-.78.93v11.37c-2.08-.79-3-1.74-3-2.51V284.91a.89.89,0,0,0-.29-.66l-11.73-11a10.67,10.67,0,0,0,4.77-2.75,11.65,11.65,0,0,0,2.94-4.16c.08-.22.14-.42.2-.63l2.41,2.27a1.08,1.08,0,0,0,1.09.2.94.94,0,0,0,.61-.86v-7a11.54,11.54,0,0,0,3,1.6v7.41s.27.94.78.94,1.46-.94,1.46-.94v-6.79l2.24.63v12.69s.45.93,1,.93.52-.93.52-.93V263.43a51.09,51.09,0,0,0,5.76.31h1v2.81s.64.93,1.15.93,1.08-.93,1.08-.93v-2.89a38.33,38.33,0,0,0,4.48-.47v13.61s.45.94,1,.94.52-.94.52-.94v-14l.41,0c.66-.16,1.83-.53,1.83-.53v7.07s.45.94,1,.94.52-.94.52-.94v-7.84l2.24-1.17v40.31C1661.76,301.58,1660.45,302.79,1657.28,303.64Z"/><path class="cls-6" d="M1657.18,547.94a7.43,7.43,0,0,0-4.51-7,7.49,7.49,0,0,0,2.16-8,7.38,7.38,0,0,0-6.43-5.21,7.49,7.49,0,0,0-.42-8.31,7.37,7.37,0,0,0-7.72-3,7.57,7.57,0,0,0-11.19-8.19,7.44,7.44,0,0,0-5.19-6.47,10.07,10.07,0,0,1-14.89-2.37,10.05,10.05,0,0,1-14.89,2.38,7.41,7.41,0,0,0-5.18,6.47,7.35,7.35,0,0,0-8.25.42,7.44,7.44,0,0,0-3,7.76,7.37,7.37,0,0,0-7.71,3,7.47,7.47,0,0,0-.42,8.31,7.62,7.62,0,0,0-4.28,13.24,7.63,7.63,0,0,0,0,13.93,7.63,7.63,0,0,0,4.28,13.25,7.47,7.47,0,0,0,.41,8.3,7.38,7.38,0,0,0,7.72,3,7.46,7.46,0,0,0,3,7.77,7.34,7.34,0,0,0,8.24.42,7.57,7.57,0,0,0,11,6v33.83h17V592.87a7.33,7.33,0,0,0,7,1.21,7.43,7.43,0,0,0,5.19-6.47,7.33,7.33,0,0,0,8.25-.42,7.45,7.45,0,0,0,2.94-7.76,7.37,7.37,0,0,0,7.72-3,7.47,7.47,0,0,0,.42-8.3,7.38,7.38,0,0,0,6.42-5.22,7.46,7.46,0,0,0-2.15-8A7.43,7.43,0,0,0,1657.18,547.94Zm-44.5,75.26h-8.48V594.81l.24.16c.2.15.4.29.61.42l.4.23.68.31.43.16c.25.08.52.14.79.2l.39.09a8.55,8.55,0,0,0,1.25.1,7.62,7.62,0,0,0,1.08-.08l.33-.06c.24,0,.47-.09.7-.15l.37-.12c.2-.07.4-.14.6-.23l.36-.17a1.92,1.92,0,0,0,.25-.12V623.2Zm37.8-72.28a3.44,3.44,0,0,0-2.71,4.52,3.3,3.3,0,0,0,1.72,1.89,3.32,3.32,0,0,1-2,6.23,3.43,3.43,0,0,0-4,3.47,3.27,3.27,0,0,0,1,2.32,3.32,3.32,0,0,1-3.85,5.31,3.25,3.25,0,0,0-2.53-.28,3.43,3.43,0,0,0-2.07,4.85,3.32,3.32,0,0,1-5.31,3.86,3.44,3.44,0,0,0-5.44.75A3.17,3.17,0,0,0,1625,586a3.32,3.32,0,0,1-6.24,2,3.37,3.37,0,0,0-3.57-1.83,3.55,3.55,0,0,0-.78.25h0c-.09,0-.18,0-.27.1a2.7,2.7,0,0,0-1.43,1.45s0,0,0,0a4.29,4.29,0,0,0-.33,1,3.32,3.32,0,0,1-6.56,0,2.78,2.78,0,0,0-.26-.8,3.37,3.37,0,0,0-2.57-2l-.21,0a2.7,2.7,0,0,0-.68-.05l-2.09.23v.84a3.36,3.36,0,0,0-.59.83,3.32,3.32,0,0,1-6.25-2,3.29,3.29,0,0,0-.52-2.5,3.42,3.42,0,0,0-5.25-.47,3.32,3.32,0,0,1-5.31-3.86,3.21,3.21,0,0,0,.27-2.53,3.45,3.45,0,0,0-4.85-2.05,3.32,3.32,0,0,1-3.86-5.31,3.27,3.27,0,0,0,1-2.32,3.45,3.45,0,0,0-4-3.46,3.32,3.32,0,0,1-2-6.23,3.25,3.25,0,0,0,1.71-1.89,3.44,3.44,0,0,0-2.71-4.52,3.32,3.32,0,0,1,0-6.56,3.23,3.23,0,0,0,2.08-1.1,3.46,3.46,0,0,0-1.06-5.31,3.32,3.32,0,0,1,2-6.24,3.44,3.44,0,0,0,4-3.75,3.11,3.11,0,0,0-1-2,3.32,3.32,0,0,1,3.85-5.32,3.27,3.27,0,0,0,2.52.28,3.44,3.44,0,0,0,2.07-4.85,3.32,3.32,0,0,1,5.3-3.87,3.31,3.31,0,0,0,2.32,1,3.45,3.45,0,0,0,3.47-4,3.32,3.32,0,0,1,6.24-2,3.36,3.36,0,0,0,3.57,1.82,3.4,3.4,0,0,0,2.83-2.84,3.32,3.32,0,0,1,6.56,0,3.4,3.4,0,0,0,6.4,1,3.32,3.32,0,0,1,6.24,2,3.26,3.26,0,0,0,.4,2.32,3.46,3.46,0,0,0,5.38.64,3.32,3.32,0,0,1,5.31,3.85,3.25,3.25,0,0,0-.27,2.53,3.44,3.44,0,0,0,4.85,2.06,3.32,3.32,0,0,1,3.86,5.31,3.23,3.23,0,0,0-1,2.31,3.45,3.45,0,0,0,4,3.47,3.32,3.32,0,0,1,2,6.23,3.25,3.25,0,0,0-1.71,1.89,3.44,3.44,0,0,0,2.72,4.52,3.32,3.32,0,0,1,0,6.56Z"/><path class="cls-6" d="M1634.1,554.59a2.13,2.13,0,0,0-2.13-2.13,19.22,19.22,0,0,0-19.2,19.2,2.14,2.14,0,0,0,4.27,0A15,15,0,0,1,1632,556.73,2.13,2.13,0,0,0,1634.1,554.59Z"/><path class="cls-6" d="M1585,558.86a2.14,2.14,0,1,0,0,4.27A15,15,0,0,1,1600,578.06a2.14,2.14,0,0,0,4.27,0A19.22,19.22,0,0,0,1585,558.86Z"/><path class="cls-6" d="M1589.3,535.39a2.14,2.14,0,0,0,0,4.27,15,15,0,0,1,14.94,14.93,2.13,2.13,0,1,0,4.26,0A19.22,19.22,0,0,0,1589.3,535.39Z"/><path class="cls-6" d="M1625.57,522.59a2.13,2.13,0,1,0,0-4.26,19.22,19.22,0,0,0-19.2,19.2,2.14,2.14,0,0,0,4.27,0A15,15,0,0,1,1625.57,522.59Z"/><path class="cls-6" d="M1640.5,535.39a4.26,4.26,0,0,1-4.26-4.26,2.14,2.14,0,1,0-4.27,0,8.54,8.54,0,0,0,8.53,8.53,2.14,2.14,0,1,0,0-4.27Z"/><path class="cls-6" d="M1619.17,546.06a2.14,2.14,0,0,0,4.27,0,4.27,4.27,0,0,1,4.26-4.27,2.13,2.13,0,1,0,0-4.26A8.54,8.54,0,0,0,1619.17,546.06Z"/><path class="cls-6" d="M1602.1,524.73a2.14,2.14,0,1,0,0-4.27,4.27,4.27,0,0,1-4.26-4.27,2.14,2.14,0,0,0-4.27,0A8.55,8.55,0,0,0,1602.1,524.73Z"/><path class="cls-6" d="M1587.17,543.93a2.14,2.14,0,1,0-4.27,0,4.26,4.26,0,0,1-4.26,4.26,2.14,2.14,0,1,0,0,4.27A8.54,8.54,0,0,0,1587.17,543.93Z"/><path class="cls-6" d="M1636.24,563.13a8.54,8.54,0,0,0-8.54,8.53,2.14,2.14,0,0,0,4.27,0,4.27,4.27,0,0,1,4.27-4.27,2.13,2.13,0,0,0,0-4.26Z"/><path class="cls-6" d="M1593.18,623v1.89a2.19,2.19,0,0,0,1.6,2.17,2.12,2.12,0,0,0,2.64-2v-2.12a2.12,2.12,0,0,0-2.64-2.06A2.19,2.19,0,0,0,1593.18,623Z"/><path class="cls-6" d="M1587.25,623v1.89a2.19,2.19,0,0,0,1.6,2.17,2.12,2.12,0,0,0,2.64-2v-2.12a2.13,2.13,0,0,0-2.64-2.06A2.19,2.19,0,0,0,1587.25,623Z"/><path class="cls-6" d="M1580.47,623v1.89a2.19,2.19,0,0,0,1.6,2.17,2.12,2.12,0,0,0,2.64-2v-2.12a2.13,2.13,0,0,0-2.64-2.06A2.19,2.19,0,0,0,1580.47,623Z"/><path class="cls-6" d="M1574.53,623v1.89a2.2,2.2,0,0,0,1.61,2.17,2.11,2.11,0,0,0,2.63-2v-2.12a2.12,2.12,0,0,0-2.63-2.06A2.2,2.2,0,0,0,1574.53,623Z"/><path class="cls-6" d="M1567.75,623v1.89a2.19,2.19,0,0,0,1.6,2.17,2.12,2.12,0,0,0,2.64-2v-2.12a2.12,2.12,0,0,0-2.64-2.06A2.19,2.19,0,0,0,1567.75,623Z"/><path class="cls-6" d="M1632.18,623v1.89a2.19,2.19,0,0,0,1.6,2.17,2.11,2.11,0,0,0,2.63-2v-2.12a2.12,2.12,0,0,0-2.63-2.06A2.19,2.19,0,0,0,1632.18,623Z"/><path class="cls-6" d="M1625.39,623v1.89A2.2,2.2,0,0,0,1627,627a2.11,2.11,0,0,0,2.63-2v-2.12a2.12,2.12,0,0,0-2.63-2.06A2.2,2.2,0,0,0,1625.39,623Z"/><path class="cls-6" d="M1619.46,623v1.89a2.19,2.19,0,0,0,1.6,2.17,2.12,2.12,0,0,0,2.64-2v-2.12a2.12,2.12,0,0,0-2.64-2.06A2.19,2.19,0,0,0,1619.46,623Z"/><path class="cls-6" d="M1650.82,623v1.89a2.2,2.2,0,0,0,1.61,2.17,2.11,2.11,0,0,0,2.63-2v-2.12a2.12,2.12,0,0,0-2.63-2.06A2.2,2.2,0,0,0,1650.82,623Z"/><path class="cls-6" d="M1644.89,623v1.89a2.19,2.19,0,0,0,1.6,2.17,2.12,2.12,0,0,0,2.64-2v-2.12a2.12,2.12,0,0,0-2.64-2.06A2.19,2.19,0,0,0,1644.89,623Z"/><path class="cls-6" d="M1638.11,623v1.89a2.19,2.19,0,0,0,1.6,2.17,2.12,2.12,0,0,0,2.64-2v-2.12a2.13,2.13,0,0,0-2.64-2.06A2.19,2.19,0,0,0,1638.11,623Z"/><path class="cls-6" d="M1670.32,623v1.9a2.18,2.18,0,0,0,1.6,2.16,2.12,2.12,0,0,0,2.64-2v-2.12a2.12,2.12,0,0,0-2.64-2.06A2.19,2.19,0,0,0,1670.32,623Z"/><path class="cls-6" d="M1664.39,623v1.9A2.18,2.18,0,0,0,1666,627a2.12,2.12,0,0,0,2.64-2v-2.12a2.13,2.13,0,0,0-2.64-2.06A2.19,2.19,0,0,0,1664.39,623Z"/><path class="cls-6" d="M1657.61,623v1.89a2.19,2.19,0,0,0,1.6,2.17,2.11,2.11,0,0,0,2.63-2v-2.12a2.12,2.12,0,0,0-2.63-2.06A2.19,2.19,0,0,0,1657.61,623Z"/><path class="cls-6" d="M1683.17,511.93a14.92,14.92,0,0,0-13,7.6,12.78,12.78,0,0,0-10.48-5.47,2.14,2.14,0,0,0,0,4.27,8.54,8.54,0,0,1,8.54,8.53,2.13,2.13,0,0,0,4.26,0,10.69,10.69,0,0,1,10.67-10.67,2.13,2.13,0,0,0,0-4.26Z"/><path class="cls-6" d="M292.05,907.52A13.24,13.24,0,0,1,279,896.12a13.15,13.15,0,0,0,9.31,3.84,1.89,1.89,0,0,0,0-3.77,9.58,9.58,0,0,1-9.53-9.45v0a9.75,9.75,0,0,0,5.75,1.94,1.89,1.89,0,0,0,0-3.78,5.67,5.67,0,0,1-5.67-5.66,1.89,1.89,0,1,0-3.78,0,5.67,5.67,0,0,1-5.66,5.66,1.89,1.89,0,1,0,0,3.78,7.45,7.45,0,0,0,5.26-1.94v0a8.88,8.88,0,0,1-9,9.45,1.89,1.89,0,1,0,0,3.77,13.12,13.12,0,0,0,9.3-3.84,13.23,13.23,0,0,1-13.08,11.4,1.89,1.89,0,0,0,0,3.77A15.58,15.58,0,0,0,274.65,905v8.22a2.64,2.64,0,0,0,2.29,1.89,1.77,1.77,0,0,0,1.81-1.89V905a17.26,17.26,0,0,0,13.3,6.33,1.89,1.89,0,1,0,0-3.77Z"/><path class="cls-6" d="M261.83,862.19a15.59,15.59,0,0,0,12.82-6.34v8.23a2.65,2.65,0,0,0,2.29,1.89,1.77,1.77,0,0,0,1.81-1.89v-8.23a17.27,17.27,0,0,0,13.3,6.34,1.89,1.89,0,1,0,0-3.78A13.23,13.23,0,0,1,279,847a13.19,13.19,0,0,0,9.31,3.84,1.89,1.89,0,0,0,0-3.78,9.58,9.58,0,0,1-9.53-9.44v0a9.75,9.75,0,0,0,5.75,1.94,1.89,1.89,0,0,0,0-3.78,5.67,5.67,0,0,1-5.67-5.67,1.89,1.89,0,1,0-3.78,0,5.67,5.67,0,0,1-5.66,5.67,1.89,1.89,0,0,0,0,3.78,7.45,7.45,0,0,0,5.26-1.94v0a8.88,8.88,0,0,1-9,9.44,1.89,1.89,0,1,0,0,3.78,13.16,13.16,0,0,0,9.3-3.84,13.22,13.22,0,0,1-13.08,11.39,1.89,1.89,0,0,0,0,3.78Z"/><path class="cls-6" d="M256.17,833.86a13.23,13.23,0,0,1-13.08-11.39,13.18,13.18,0,0,0,9.3,3.84,1.89,1.89,0,1,0,0-3.78,9.09,9.09,0,0,1-9.19-9.44V813a8.11,8.11,0,0,0,5.41,1.93,1.89,1.89,0,1,0,0-3.77,5.68,5.68,0,0,1-5.66-5.67,1.89,1.89,0,1,0-3.78,0,5.68,5.68,0,0,1-5.67,5.67,1.89,1.89,0,0,0,0,3.77,9,9,0,0,0,5.6-1.93v.05a9.35,9.35,0,0,1-9.37,9.44,1.89,1.89,0,0,0,0,3.78,13.18,13.18,0,0,0,9.3-3.84A13.24,13.24,0,0,1,226,833.86a1.89,1.89,0,1,0,0,3.78,16.72,16.72,0,0,0,13.15-6.34v8.23a2,2,0,0,0,2,1.88,2.32,2.32,0,0,0,2.14-1.88V831.3a16.1,16.1,0,0,0,13,6.34,1.89,1.89,0,1,0,0-3.78Z"/><path class="cls-6" d="M295.83,837.64a16.2,16.2,0,0,0,13-6.34v8.23a2.26,2.26,0,0,0,2.11,1.88,2,2,0,0,0,2-1.88V831.3a16.62,16.62,0,0,0,13.12,6.34,1.89,1.89,0,1,0,0-3.78A13.23,13.23,0,0,1,313,822.47a13.18,13.18,0,0,0,9.3,3.84,1.89,1.89,0,1,0,0-3.78,9.3,9.3,0,0,1-9.34-9.44V813a8.82,8.82,0,0,0,5.56,1.93,1.89,1.89,0,1,0,0-3.77,5.68,5.68,0,0,1-5.66-5.67,1.89,1.89,0,0,0-3.78,0,5.68,5.68,0,0,1-5.67,5.67,1.89,1.89,0,0,0,0,3.77,8.25,8.25,0,0,0,5.45-1.93v.05a9.14,9.14,0,0,1-9.22,9.44,1.89,1.89,0,0,0,0,3.78,13.18,13.18,0,0,0,9.3-3.84,13.24,13.24,0,0,1-13.08,11.39,1.89,1.89,0,1,0,0,3.78Z"/><path class="cls-6" d="M326.05,881.08A13.23,13.23,0,0,1,313,869.68a13.18,13.18,0,0,0,9.3,3.84,1.89,1.89,0,1,0,0-3.78,9.3,9.3,0,0,1-9.34-9.44v0a8.83,8.83,0,0,0,5.56,1.94,1.89,1.89,0,1,0,0-3.78,5.67,5.67,0,0,1-5.66-5.66,1.89,1.89,0,0,0-3.78,0,5.67,5.67,0,0,1-5.67,5.66,1.89,1.89,0,0,0,0,3.78,8.26,8.26,0,0,0,5.45-1.94v0a9.13,9.13,0,0,1-9.22,9.44,1.89,1.89,0,0,0,0,3.78,13.18,13.18,0,0,0,9.3-3.84,13.24,13.24,0,0,1-13.08,11.4,1.89,1.89,0,1,0,0,3.77,16.2,16.2,0,0,0,13-6.33v8.22a2.26,2.26,0,0,0,2.11,1.89,2,2,0,0,0,2-1.89v-8.22a16.61,16.61,0,0,0,13.12,6.33,1.89,1.89,0,1,0,0-3.77Z"/><path class="cls-6" d="M256.17,881.08a13.23,13.23,0,0,1-13.08-11.4,13.18,13.18,0,0,0,9.3,3.84,1.89,1.89,0,1,0,0-3.78,9.08,9.08,0,0,1-9.19-9.44v0a8.11,8.11,0,0,0,5.41,1.94,1.89,1.89,0,1,0,0-3.78,5.67,5.67,0,0,1-5.66-5.66,1.89,1.89,0,1,0-3.78,0,5.67,5.67,0,0,1-5.67,5.66,1.89,1.89,0,0,0,0,3.78,9,9,0,0,0,5.6-1.94v0a9.35,9.35,0,0,1-9.37,9.44,1.89,1.89,0,0,0,0,3.78,13.18,13.18,0,0,0,9.3-3.84A13.24,13.24,0,0,1,226,881.08a1.89,1.89,0,1,0,0,3.77,16.71,16.71,0,0,0,13.15-6.33v8.22a2,2,0,0,0,2,1.89,2.32,2.32,0,0,0,2.14-1.89v-8.22a16.1,16.1,0,0,0,13,6.33,1.89,1.89,0,1,0,0-3.77Z"/><path class="cls-6" d="M1060.05,907.52a13.24,13.24,0,0,1-13.08-11.4,13.15,13.15,0,0,0,9.31,3.84,1.89,1.89,0,0,0,0-3.77,9.58,9.58,0,0,1-9.53-9.45v0a9.75,9.75,0,0,0,5.75,1.94,1.89,1.89,0,1,0,0-3.78,5.67,5.67,0,0,1-5.67-5.66,1.89,1.89,0,0,0-3.78,0,5.67,5.67,0,0,1-5.66,5.66,1.89,1.89,0,0,0,0,3.78,7.45,7.45,0,0,0,5.26-1.94v0a8.88,8.88,0,0,1-9,9.45,1.89,1.89,0,1,0,0,3.77,13.12,13.12,0,0,0,9.3-3.84,13.23,13.23,0,0,1-13.08,11.4,1.89,1.89,0,0,0,0,3.77,15.58,15.58,0,0,0,12.82-6.33v8.22a2.64,2.64,0,0,0,2.29,1.89,1.77,1.77,0,0,0,1.81-1.89V905a17.26,17.26,0,0,0,13.3,6.33,1.89,1.89,0,1,0,0-3.77Z"/><path class="cls-6" d="M1029.83,862.19a15.59,15.59,0,0,0,12.82-6.34v8.23a2.65,2.65,0,0,0,2.29,1.89,1.77,1.77,0,0,0,1.81-1.89v-8.23a17.27,17.27,0,0,0,13.3,6.34,1.89,1.89,0,1,0,0-3.78A13.23,13.23,0,0,1,1047,847a13.19,13.19,0,0,0,9.31,3.84,1.89,1.89,0,0,0,0-3.78,9.58,9.58,0,0,1-9.53-9.44v0a9.75,9.75,0,0,0,5.75,1.94,1.89,1.89,0,1,0,0-3.78,5.67,5.67,0,0,1-5.67-5.67,1.89,1.89,0,1,0-3.78,0,5.67,5.67,0,0,1-5.66,5.67,1.89,1.89,0,0,0,0,3.78,7.45,7.45,0,0,0,5.26-1.94v0a8.88,8.88,0,0,1-9,9.44,1.89,1.89,0,1,0,0,3.78,13.16,13.16,0,0,0,9.3-3.84,13.22,13.22,0,0,1-13.08,11.39,1.89,1.89,0,0,0,0,3.78Z"/><path class="cls-6" d="M1024.17,833.86a13.23,13.23,0,0,1-13.08-11.39,13.18,13.18,0,0,0,9.3,3.84,1.89,1.89,0,0,0,0-3.78,9.09,9.09,0,0,1-9.19-9.44V813a8.11,8.11,0,0,0,5.41,1.93,1.89,1.89,0,1,0,0-3.77,5.68,5.68,0,0,1-5.66-5.67,1.89,1.89,0,0,0-3.78,0,5.68,5.68,0,0,1-5.67,5.67,1.89,1.89,0,0,0,0,3.77,9,9,0,0,0,5.6-1.93v.05a9.35,9.35,0,0,1-9.37,9.44,1.89,1.89,0,0,0,0,3.78,13.18,13.18,0,0,0,9.3-3.84A13.24,13.24,0,0,1,994,833.86a1.89,1.89,0,0,0,0,3.78,16.72,16.72,0,0,0,13.15-6.34v8.23a2,2,0,0,0,2,1.88,2.32,2.32,0,0,0,2.14-1.88V831.3a16.1,16.1,0,0,0,13,6.34,1.89,1.89,0,0,0,0-3.78Z"/><path class="cls-6" d="M1063.83,837.64a16.2,16.2,0,0,0,13-6.34v8.23a2.26,2.26,0,0,0,2.11,1.88,2,2,0,0,0,2-1.88V831.3a16.62,16.62,0,0,0,13.12,6.34,1.89,1.89,0,1,0,0-3.78A13.23,13.23,0,0,1,1081,822.47a13.18,13.18,0,0,0,9.3,3.84,1.89,1.89,0,1,0,0-3.78,9.3,9.3,0,0,1-9.34-9.44V813a8.82,8.82,0,0,0,5.56,1.93,1.89,1.89,0,1,0,0-3.77,5.68,5.68,0,0,1-5.66-5.67,1.89,1.89,0,1,0-3.78,0,5.68,5.68,0,0,1-5.67,5.67,1.89,1.89,0,0,0,0,3.77,8.25,8.25,0,0,0,5.45-1.93v.05a9.14,9.14,0,0,1-9.22,9.44,1.89,1.89,0,1,0,0,3.78,13.18,13.18,0,0,0,9.3-3.84,13.24,13.24,0,0,1-13.08,11.39,1.89,1.89,0,1,0,0,3.78Z"/><path class="cls-6" d="M1094.05,881.08a13.23,13.23,0,0,1-13.08-11.4,13.18,13.18,0,0,0,9.3,3.84,1.89,1.89,0,1,0,0-3.78,9.3,9.3,0,0,1-9.34-9.44v0a8.83,8.83,0,0,0,5.56,1.94,1.89,1.89,0,1,0,0-3.78,5.67,5.67,0,0,1-5.66-5.66,1.89,1.89,0,1,0-3.78,0,5.67,5.67,0,0,1-5.67,5.66,1.89,1.89,0,0,0,0,3.78,8.26,8.26,0,0,0,5.45-1.94v0a9.13,9.13,0,0,1-9.22,9.44,1.89,1.89,0,1,0,0,3.78,13.18,13.18,0,0,0,9.3-3.84,13.24,13.24,0,0,1-13.08,11.4,1.89,1.89,0,1,0,0,3.77,16.2,16.2,0,0,0,13-6.33v8.22a2.26,2.26,0,0,0,2.11,1.89,2,2,0,0,0,2-1.89v-8.22a16.61,16.61,0,0,0,13.12,6.33,1.89,1.89,0,1,0,0-3.77Z"/><path class="cls-6" d="M1024.17,881.08a13.23,13.23,0,0,1-13.08-11.4,13.18,13.18,0,0,0,9.3,3.84,1.89,1.89,0,0,0,0-3.78,9.08,9.08,0,0,1-9.19-9.44v0a8.11,8.11,0,0,0,5.41,1.94,1.89,1.89,0,0,0,0-3.78,5.67,5.67,0,0,1-5.66-5.66,1.89,1.89,0,0,0-3.78,0,5.67,5.67,0,0,1-5.67,5.66,1.89,1.89,0,0,0,0,3.78,9,9,0,0,0,5.6-1.94v0a9.35,9.35,0,0,1-9.37,9.44,1.89,1.89,0,0,0,0,3.78,13.18,13.18,0,0,0,9.3-3.84A13.24,13.24,0,0,1,994,881.08a1.89,1.89,0,1,0,0,3.77,16.71,16.71,0,0,0,13.15-6.33v8.22a2,2,0,0,0,2,1.89,2.32,2.32,0,0,0,2.14-1.89v-8.22a16.1,16.1,0,0,0,13,6.33,1.89,1.89,0,1,0,0-3.77Z"/><path class="cls-6" d="M588.93,915.36a6.62,6.62,0,0,0-4.31-7.18h0l-17.08-6.12c4.15-4.3,6.79-10.72,6.79-18.27,0-13.89-3.6-19.21-3.6-19.21,0,11.4-9.61,19.21-9.61,19.21a45,45,0,0,0-3.6-16.81,14.29,14.29,0,0,1-4.8,10.8c-6.42-6.41,0-21.61,0-21.61-9.14,1.21-17.32,7.51-17.32,18,0,7.43,2.07,12.37,5.31,15.61a46,46,0,0,0-5.74-2.77,26.54,26.54,0,0,0,6.85,15l-17.1,6.12,0,0a6.55,6.55,0,0,0-3.75,3.39,6.63,6.63,0,0,0-.56,3.79,6.82,6.82,0,0,0,.31,1.26,7,7,0,0,0,.78,1.48,6.6,6.6,0,0,0,2.62,2.26,6.49,6.49,0,0,0,2.82.64h0a6.53,6.53,0,0,0,2.22-.39l25.53-9.14,25.54,9.14c.07,0,.14,0,.22.06a6.29,6.29,0,0,0,1,.24l.45,0a6,6,0,0,0,.61,0h.42a7.35,7.35,0,0,0,1.13-.17l.09,0a6.29,6.29,0,0,0,1.17-.42,7,7,0,0,0,3.4-3.74A6.85,6.85,0,0,0,588.93,915.36ZM581,918.54a4.2,4.2,0,0,1-.38-7.75,4.13,4.13,0,0,1,3.18-.17h0a4.22,4.22,0,0,1,2.74,4.57,4.46,4.46,0,0,1-.2.8,4.31,4.31,0,0,1-2.16,2.38,4.07,4.07,0,0,1-3.21.16ZM538.29,891.4c.71.38,1.17.65,1.18.65a2.39,2.39,0,0,0,3.11-.61,2.4,2.4,0,0,0-.2-3.16c-3.06-3.06-4.61-7.74-4.61-13.92a14.47,14.47,0,0,1,4.49-10.75,18,18,0,0,1,6.76-4c-1.58,5.45-3.23,14.82,2,20a2.41,2.41,0,0,0,3.18.19,15.65,15.65,0,0,0,3.52-4.3,38.4,38.4,0,0,1,1,8.41,2.4,2.4,0,0,0,1.37,2.17,2.34,2.34,0,0,0,1,.23,2.44,2.44,0,0,0,1.52-.53,32.75,32.75,0,0,0,8.55-11.7,59.75,59.75,0,0,1,.74,9.83c0,7.54-2.81,13.93-7.26,17.76-.17.15-.34.3-.51.43l0,0a18.81,18.81,0,0,1-1.71,1.14,9.34,9.34,0,0,0,1.39-4.92c0-5.14-1.69-7.26-1.88-7.48a1.18,1.18,0,0,0-1.33-.35,1.2,1.2,0,0,0-.79,1.13,8.29,8.29,0,0,1-2.14,4.87,18.68,18.68,0,0,0-1.42-4.16,1.22,1.22,0,0,0-1.35-.63A1.21,1.21,0,0,0,554,893c0,.82-1.14,1.13-1.89,1.25-.41-1.18,0-3.57.51-5.05a1.2,1.2,0,0,0-1.26-1.58c-4.6.48-7.14,3.13-7.14,7.48a9.32,9.32,0,0,0,.58,3.36,1.13,1.13,0,0,0-.35.21,1.2,1.2,0,0,0-.4,1.1,9.41,9.41,0,0,0,.43,1.68A22.4,22.4,0,0,1,538.29,891.4Zm8.79,10.13.14.06a1.2,1.2,0,0,0,1.25-2,5.33,5.33,0,0,1-1.9-4.5c0-2.47,1.06-4,3.21-4.73-.38,1.85-.6,4.49.77,6a1.35,1.35,0,0,0,.9.39,6.63,6.63,0,0,0,3.47-1,12.59,12.59,0,0,1,.62,3.59,1.2,1.2,0,0,0,2,.92,16.32,16.32,0,0,0,3.64-4.57,17.08,17.08,0,0,1,.22,2.82,7.18,7.18,0,0,1-7.2,7.16,13.46,13.46,0,0,1-2.54-.3A7.45,7.45,0,0,1,547.08,901.53Zm-20.21,8.85a4.2,4.2,0,0,1,3.8,6,4.15,4.15,0,0,1-2.38,2.16,4.32,4.32,0,0,1-1.62.25,4.26,4.26,0,0,1-3.31-1.91,4.38,4.38,0,0,1-.65-1.68,4.26,4.26,0,0,1,2.74-4.57h0A4.13,4.13,0,0,1,526.87,910.38Zm6.17,6.46a6.37,6.37,0,0,0,.39-1.66h0a1.21,1.21,0,0,0,.38-.06l7.21-2.4a1.2,1.2,0,0,0-.76-2.28l-7.1,2.36c0-.15-.06-.3-.11-.45a6,6,0,0,0-.39-.85l3.55-1.19a1.2,1.2,0,1,0-.76-2.27l-3.6,1.2a1.14,1.14,0,0,0-.58.45,6.73,6.73,0,0,0-1.06-.78l13.25-4.75a18.43,18.43,0,0,0,8.19,3.58,10,10,0,0,0,2.13.23h.66a17.93,17.93,0,0,0,1.8-.1l.58-.07,1.2-.21.62-.14a15,15,0,0,0,1.58-.47l.57-.23c.37-.14.73-.29,1.09-.46l.57-.28c.46-.23.9-.48,1.34-.75l.13-.08c.54-.34,1.07-.69,1.59-1.09l13.5,4.83a6.33,6.33,0,0,0-1.27,1,1.17,1.17,0,0,0-.7-.64l-3.61-1.2a1.2,1.2,0,0,0-.76,2.28l3.61,1.2a1.6,1.6,0,0,0,.23,0,5.86,5.86,0,0,0-.38.8c-.06.19-.09.39-.14.58l-.15-.09-7.21-2.4a1.2,1.2,0,0,0-.76,2.28l7.21,2.4a1.19,1.19,0,0,0,.37.06,1.14,1.14,0,0,0,.33-.05,6.28,6.28,0,0,0,.4,1.7l-21.59-7.73Z"/><circle class="cls-14" cx="618" cy="87" r="50"/><circle class="cls-14" cx="1126" cy="87" r="50"/><circle class="cls-14" cx="1653" cy="532" r="50"/><circle class="cls-14" cx="1087" cy="828" r="50"/><circle class="cls-14" cx="326" cy="828" r="50"/><rect class="cls-15" x="346" y="399" width="97" height="97"/><rect class="cls-16" x="913" y="348" width="97" height="97"/><rect class="cls-17" x="682" y="842" width="97" height="97"/><rect class="cls-18" x="1389" y="544" width="97" height="97"/><line class="cls-19" x1="382" y1="333.5" x2="503" y2="333.5"/><line class="cls-19" x1="851.5" y1="335.5" x2="972.5" y2="335.5"/><line class="cls-19" x1="619.5" y1="773.5" x2="740.5" y2="773.5"/><line class="cls-19" x1="1377.5" y1="623.93" x2="1377.5" y2="502.93"/></g></g></svg>