<svg xmlns="http://www.w3.org/2000/svg" viewBox="0 0 88 88"><defs><style>.cls-1{isolation:isolate;}.cls-2{fill:#141414;}.cls-3{fill:#fff;}.cls-4{mix-blend-mode:multiply;}.cls-5{fill:red;}</style></defs><title>game</title><g class="cls-1"><g id="Layer_1" data-name="Layer 1"><rect class="cls-2" width="88" height="88"/><path class="cls-3" d="M34.4,47.73h-3v-3a1,1,0,0,0-2,0v3h-3a1,1,0,0,0,0,2h3v3a1,1,0,0,0,2,0v-3h3a1,1,0,0,0,0-2Z"/><path class="cls-3" d="M57,43a5.45,5.45,0,1,0,5.45,5.45A5.46,5.46,0,0,0,57,43Zm0,8.72a3.27,3.27,0,1,1,3.27-3.27A3.28,3.28,0,0,1,57,51.72Z"/><path class="cls-3" d="M57,36.73H45.4V33a3.26,3.26,0,0,1,3.27-3.27H66.4a1,1,0,0,0,0-2H48.85a5.45,5.45,0,0,0-5.45,5.44v3.56H30.84a11.6,11.6,0,0,0-12,11.72,12,12,0,0,0,12,12,13.84,13.84,0,0,0,9.24-3.7h7.68A13.84,13.84,0,0,0,57,60.43a12,12,0,0,0,12-12A11.61,11.61,0,0,0,57,36.73Zm0,21.52a9.73,9.73,0,0,1-7.84-3.92,2.15,2.15,0,0,0-.87-.6H39.55a2.29,2.29,0,0,0-.87.6,9.71,9.71,0,0,1-7.84,3.92,9.82,9.82,0,0,1-9.8-9.8,9.68,9.68,0,0,1,9.8-9.72H43.4v4h-3a1,1,0,0,0,0,2h8a1,1,0,0,0,0-2h-3v-4H57a9.69,9.69,0,0,1,9.81,9.72A9.82,9.82,0,0,1,57,58.25Z"/><g class="cls-4"><rect class="cls-5" width="88" height="88"/></g></g></g></svg>