<?xml version="1.0" standalone="no"?>
<!DOCTYPE svg PUBLIC "-//W3C//DTD SVG 20010904//EN"
 "http://www.w3.org/TR/2001/REC-SVG-20010904/DTD/svg10.dtd">
<svg version="1.0" xmlns="http://www.w3.org/2000/svg"
 width="1114.000000pt" height="1114.000000pt" viewBox="0 0 1114.000000 1114.000000"
 preserveAspectRatio="xMidYMid meet">
<metadata>
Created by potrace 1.11, written by Peter Selinger 2001-2013
</metadata>
<g transform="translate(0.000000,1114.000000) scale(0.100000,-0.100000)"
fill="#000000" stroke="none">
<path d="M2440 6242 l0 -4899 265 1 c228 1 266 -1 269 -14 2 -8 3 -303 2 -655
0 -352 0 -648 3 -657 3 -17 146 -18 2822 -18 l2819 0 0 150 0 150 -667 0
c-368 1 -675 1 -683 1 -8 0 -116 0 -240 0 -124 0 -232 0 -240 0 -11 0 -1263 0
-1440 0 -8 0 -116 0 -240 0 -124 0 -232 0 -240 0 -8 0 -332 0 -720 0 -388 0
-712 0 -720 1 -8 0 -43 -1 -78 -2 -34 -2 -66 0 -69 4 -11 11 -9 1035 2 1039 6
1 84 2 175 1 118 0 165 -4 166 -12 1 -7 2 -13 3 -14 1 -2 3 -23 5 -48 3 -44 5
-57 28 -135 35 -119 122 -245 231 -333 34 -28 160 -92 180 -92 7 0 17 -3 21
-7 3 -4 12 -8 19 -9 124 -22 253 -26 332 -9 86 17 181 67 227 118 l28 31 1
-35 c1 -19 1 -40 -1 -48 -1 -7 1 -23 4 -35 5 -21 9 -21 231 -21 l226 0 -3 62
c-2 35 1 63 5 63 5 0 5 5 2 10 -4 6 -6 106 -5 223 2 267 2 248 -4 272 -5 20 0
20 234 20 237 0 239 0 224 -20 -8 -11 -26 -45 -41 -75 -22 -47 -26 -69 -27
-150 -1 -96 6 -128 47 -204 21 -40 85 -110 122 -134 33 -21 123 -61 147 -66
13 -3 44 -9 70 -14 64 -13 222 -8 278 9 25 7 47 13 50 13 33 6 110 59 149 102
l48 55 0 -63 c0 -117 -27 -104 221 -104 119 1 219 4 222 7 3 4 5 151 5 326 l0
318 205 0 205 0 1 -105 c2 -306 161 -512 429 -557 46 -8 198 -9 235 -2 53 11
117 34 159 57 48 26 58 34 96 70 27 25 26 26 30 -48 1 -25 3 -50 4 -56 1 -8
54 -11 176 -10 l175 0 0 658 c0 620 -1 658 -17 659 -66 4 -346 3 -353 -1 -4
-3 -7 -152 -7 -331 0 -179 -4 -332 -8 -339 -6 -9 -4 -11 5 -5 8 5 11 4 7 -2
-3 -5 -8 -22 -11 -37 -26 -142 -112 -226 -233 -227 -85 -1 -130 17 -170 66
-54 65 -56 87 -59 495 -1 206 -3 377 -3 380 -1 3 -33 4 -71 4 -39 -1 -73 2
-76 8 -4 6 -9 7641 -5 7738 1 8 14 22 29 31 28 16 134 182 180 281 22 47 55
159 67 228 21 113 12 318 -17 389 -6 14 -12 31 -14 38 -3 16 -48 74 -76 98
-33 29 -81 47 -128 48 -46 1 -42 -15 -41 165 l0 102 -2590 0 -2589 0 0 -4898z
m2244 -4909 c3 -7 1 -15 -5 -18 -5 -4 -7 -10 -4 -15 3 -5 -4 -35 -16 -66 -25
-66 -88 -135 -146 -159 -37 -16 -133 -22 -183 -13 -49 9 -110 49 -144 94 -36
47 -72 136 -62 153 4 5 2 12 -4 16 -6 4 -8 9 -6 13 2 4 130 7 285 7 211 0 282
-3 285 -12z m1727 -82 c25 -1 18 -119 -10 -164 -81 -131 -316 -152 -378 -34
-18 37 -19 97 -1 127 39 64 143 83 389 71z"/>
<path d="M8294 10090 c-147 -48 -250 -228 -291 -510 -9 -56 -9 -191 0 -245 14
-94 50 -242 63 -262 13 -21 21 -23 112 -21 121 1 192 -7 305 -34 64 -16 94
-19 105 -11 15 9 36 55 48 106 2 9 6 25 8 35 6 24 32 156 44 221 9 51 9 320 0
351 -3 8 -8 29 -12 45 -37 149 -129 278 -229 320 -52 21 -99 23 -153 5z"/>
<path d="M8020 8819 c-85 -272 -51 -429 105 -495 48 -20 136 -26 178 -12 69
23 150 114 172 193 5 17 9 33 10 38 2 4 3 8 4 10 5 5 42 230 38 232 -1 0 -38
9 -82 18 -44 10 -91 20 -105 23 -24 5 -109 24 -230 50 -36 8 -66 14 -67 14 -1
0 -11 -32 -23 -71z"/>
<path d="M8301 8050 c-4 -3 -7 -1268 -7 -2811 l0 -2807 146 3 c80 1 147 3 150
4 4 1 5 5566 1 5606 -1 10 -276 15 -290 5z"/>
</g>
</svg>
