<svg width="85" height="86" viewBox="0 0 85 86" fill="none" xmlns="http://www.w3.org/2000/svg">
<path d="M34.281 45.6166H31.0115V42.3471C31.0115 41.7456 30.5233 41.2573 29.9217 41.2573C29.3201 41.2573 28.8319 41.7456 28.8319 42.3471V45.6166H25.5625C24.9609 45.6166 24.4727 46.1048 24.4727 46.7064C24.4727 47.308 24.9609 47.7962 25.5625 47.7962H28.8319V51.0656C28.8319 51.6672 29.3201 52.1554 29.9217 52.1554C30.5233 52.1554 31.0115 51.6672 31.0115 51.0656V47.7962H34.281C34.8826 47.7962 35.3708 47.308 35.3708 46.7064C35.3708 46.1048 34.8826 45.6166 34.281 45.6166Z" fill="white"/>
<path d="M56.0772 41.2573C53.0726 41.2573 50.6282 43.7018 50.6282 46.7064C50.6282 49.711 53.0726 52.1554 56.0772 52.1554C59.0818 52.1554 61.5263 49.711 61.5263 46.7064C61.5263 43.7018 59.0818 41.2573 56.0772 41.2573ZM56.0772 49.9758C54.2747 49.9758 52.8078 48.5089 52.8078 46.7064C52.8078 44.9038 54.2747 43.4369 56.0772 43.4369C57.8798 43.4369 59.3467 44.9038 59.3467 46.7064C59.3467 48.5089 57.8798 49.9758 56.0772 49.9758Z" fill="white"/>
<path d="M56.0783 34.7185H44.0893V31.4491C44.0893 29.6465 45.5562 28.1796 47.3587 28.1796H66.9753C67.5769 28.1796 68.0652 27.6914 68.0652 27.0898C68.0652 26.4882 67.5769 26 66.9753 26H47.3587C44.3541 26 41.9097 28.4444 41.9097 31.4491V34.7185H29.9217C23.312 34.7185 17.9338 40.0967 17.9338 46.7064C17.9338 53.3162 23.312 58.6944 29.9217 58.6944C33.541 58.6944 36.878 57.1131 39.1601 54.3351H46.84C49.122 57.1131 52.458 58.6944 56.0783 58.6944C62.688 58.6944 68.0662 53.3162 68.0662 46.7064C68.0662 40.0967 62.688 34.7185 56.0783 34.7185ZM56.0772 56.5148C52.9647 56.5148 50.1083 55.0849 48.2415 52.5914C48.0355 52.3168 47.7129 52.1555 47.3696 52.1555H38.6293C38.286 52.1555 37.9634 52.3168 37.7575 52.5914C35.8906 55.0849 33.0342 56.5148 29.9217 56.5148C24.5141 56.5148 20.1134 52.1141 20.1134 46.7064C20.1134 41.2988 24.5141 36.8981 29.9217 36.8981H41.9097V41.2574H38.6402C38.0386 41.2574 37.5504 41.7456 37.5504 42.3472C37.5504 42.9488 38.0386 43.437 38.6402 43.437H47.3587C47.9603 43.437 48.4485 42.9488 48.4485 42.3472C48.4485 41.7456 47.9603 41.2574 47.3587 41.2574H44.0893V36.8981H56.0772C61.4849 36.8981 65.8855 41.2988 65.8855 46.7064C65.8855 52.1141 61.4849 56.5148 56.0772 56.5148Z" fill="white"/>
<g style="mix-blend-mode:multiply">
<rect width="85" height="86" fill="#FF0000"/>
</g>
</svg>
