<svg width="313" height="557" viewBox="0 0 313 557" fill="none" xmlns="http://www.w3.org/2000/svg">
<path d="M98.0489 504.331C90.3634 504.331 84.4904 499.091 83.7768 489.848H59.3146C60.1852 510.54 74.8425 523.385 92.9894 523.385C101.845 523.385 108.546 520.857 113.092 515.432V522.246H135.977V489.877H112.192C111.457 499.091 105.613 504.331 98.0489 504.331Z" fill="#FFFF00"/>
<path d="M155.066 502.316C155.066 514.171 164.171 523.378 180.605 523.378C190.596 523.378 197.418 519.974 200.836 513.409V522.239H223.215V489.877H159.547C156.521 493.145 155.066 497.353 155.066 502.316ZM188.826 494.363H199.195V500.294C197.297 505.72 192.615 508.24 187.306 508.24C181.597 508.24 178.329 505.342 178.329 501.305C178.329 497.14 181.112 494.363 188.826 494.363Z" fill="#FFFF00"/>
<path d="M41.867 489.848H26.8528V557H308.997V542.012H41.867V489.848Z" fill="#FFFF00"/>
<path d="M284.085 104.59C289.936 103.707 299.563 104.996 305.607 106.997C307.284 107.559 308.326 106.37 308.726 105.032C320.714 65.0725 304.373 52.8897 297.679 51.9071C290.985 50.9245 281.53 56.1152 278.126 77.5402C276.606 87.1099 279.047 94.9066 280.467 101.308C281.038 103.914 281.937 104.911 284.085 104.59Z" fill="#FFFF00"/>
<path d="M286.718 141.602C294.939 143.531 300.84 137.757 302.845 127.767C304.059 121.736 304.458 117.848 304.458 117.848L280.196 112.458C278.988 115.594 278.066 118.833 277.441 122.135C275.45 132.124 276.97 139.316 286.718 141.602Z" fill="white"/>
<path d="M262.306 65.6491C265.767 60.0739 270.655 53.5446 272.389 43.9892C276.278 22.6282 269.078 14.6037 262.434 13.322C261.269 13.1358 260.081 13.1358 258.916 13.322V67.9063C260.222 68.1626 261.178 67.4221 262.306 65.6491Z" fill="#FFFF00"/>
<path d="M208.836 27.4844V42.437H41.8527V489.877H59.3146C59.3146 489.236 59.2361 488.617 59.2361 487.962C59.2361 466.259 74.2788 452.759 92.9894 452.759C100.953 452.759 107.404 455.03 111.957 459.829V428.642H135.977V489.877H159.526C164.193 484.793 172.627 481.902 185.515 481.902H199.173C198.788 474.967 194.114 471.051 184.63 471.051C178.058 471.051 170.722 473.322 166.077 476.982L157.97 460.684C165.82 455.507 177.444 452.73 188.191 452.73C210.441 452.73 223.215 462.571 223.215 484.273V489.877H243.509V456.34H258.916V77.8178C258.895 80.6511 258.681 83.4797 258.274 86.2838C256.847 96.3804 253.022 102.661 243.06 101.592C234.661 100.702 231.007 93.3045 232.427 83.215C233.276 77.12 234.19 73.3249 234.19 73.3249L258.888 76.2442C258.888 76.2442 258.888 76.7996 258.888 77.8178V67.9063C258.501 67.8398 258.128 67.7124 257.781 67.529C252.615 64.7948 243.067 62.8082 236.702 62.7014C234.932 62.7014 234.34 61.2132 234.404 59.8533C236.059 24.0737 250.624 14.5397 258.916 13.3648V0H0V489.877H26.8528V27.4844H208.836ZM200.522 444.898L190.846 438.198L181.176 444.898H166.726L181.626 431.049H200.065L214.973 444.898H200.522ZM236.659 418.781L220.168 431.555H206.752L217.606 418.781H236.659Z" fill="#1F00FF"/>
<path d="M112.335 487.933C112.335 477.587 106.141 471.784 98.0632 471.784C89.8425 471.784 83.6484 477.587 83.6484 487.933C83.6484 488.645 83.7412 489.208 83.7983 489.848H112.207C112.242 489.208 112.335 488.609 112.335 487.933Z" fill="#1F00FF"/>
<path d="M111.957 428.642V459.808C107.404 455.009 100.953 452.737 92.9894 452.737C74.2788 452.737 59.2361 466.266 59.2361 487.94C59.2361 488.595 59.2932 489.215 59.3146 489.855H83.784C83.7269 489.215 83.6341 488.617 83.6341 487.94C83.6341 477.594 89.8282 471.791 98.0489 471.791C106.141 471.791 112.321 477.594 112.321 487.94C112.321 488.652 112.228 489.215 112.178 489.855H135.963V428.642H111.957Z" fill="white"/>
<path d="M181.633 431.049L166.719 444.898H181.176L190.846 438.198L200.522 444.898H214.973L200.065 431.049H181.633Z" fill="white"/>
<path d="M188.191 452.73C177.444 452.73 165.812 455.507 157.97 460.684L166.062 476.953C170.743 473.294 178.079 471.022 184.616 471.022C194.1 471.022 198.774 474.938 199.159 481.874H185.536C172.649 481.874 164.214 484.764 159.547 489.848H223.215V484.273C223.215 462.57 210.441 452.73 188.191 452.73Z" fill="white"/>
<path d="M220.168 431.555L236.659 418.781H217.606L206.752 431.555H220.168Z" fill="white"/>
<path d="M41.867 42.4655H208.836V27.4844H26.8528V489.848H41.867V42.4655Z" fill="white"/>
<path d="M234.404 59.8104C234.34 61.2345 234.932 62.6586 236.702 62.6586C243.067 62.7654 252.579 64.7306 257.81 67.4861C258.156 67.6695 258.53 67.7969 258.916 67.8635V13.3291C250.624 14.504 236.059 24.038 234.404 59.8104Z" fill="white"/>
<path d="M234.19 73.3391C234.19 73.3391 233.276 77.1342 232.427 83.2292C231 93.3187 234.661 100.717 243.06 101.607C253.05 102.668 256.868 96.3947 258.274 86.2981C258.681 83.4939 258.895 80.6653 258.916 77.832C258.916 76.8138 258.916 76.2584 258.916 76.2584L234.19 73.3391Z" fill="white"/>
<path d="M243.509 489.877V493.223C243.509 514.157 255.341 523.406 271.568 523.406C279.132 523.406 286.204 520.729 291.207 515.254V522.317H308.99V456.312H290.108V488.083C290.108 499.162 284.499 503.662 277.662 503.662C270.712 503.662 266.687 499.646 266.687 489.421V456.312H258.916V489.877H243.509Z" fill="#FFFF00"/>
<path d="M258.916 456.312H243.509V489.841H258.916V456.312Z" fill="white"/>
<path d="M307.677 154.318H292.662V435.328H307.677V154.318Z" fill="#FFFF00"/>
<path d="M60.9202 58.6213H66.2722C68.991 58.6213 71.0605 59.2337 72.5233 60.494C73.2183 61.1191 73.7651 61.8906 74.1243 62.7527C74.4834 63.6148 74.6459 64.5457 74.5999 65.4782V65.5067C74.6438 66.4585 74.4744 67.408 74.104 68.2863C73.7337 69.1645 73.1718 69.9493 72.4591 70.5835C70.9606 71.9007 68.8269 72.5558 66.0867 72.5558H60.9202V58.6213ZM65.5943 62.6586V68.4972H66.365C68.6984 68.4972 69.8759 67.5431 69.8759 65.6491V65.6064C69.8759 63.6768 68.6984 62.7582 66.365 62.7582L65.5943 62.6586Z" fill="white"/>
<path d="M91.5622 66.2187C91.5622 70.6428 89.2454 72.8524 84.6118 72.8477C80.0376 72.8477 77.7398 70.7116 77.7398 66.3184V58.6213H82.4924V66.2187C82.4924 67.8777 83.206 68.6894 84.6332 68.6894C86.0604 68.6894 86.774 67.892 86.774 66.3184V58.6213H91.5337V60.7574C92.1474 60.4584 92.4257 59.7392 92.3686 58.6213H94.909C94.909 60.259 94.5522 61.3555 93.8458 61.8896C93.1742 62.3242 92.3977 62.5701 91.5979 62.6016L91.5622 66.2187ZM82.6708 73.8659H86.3886V77.5329H82.6708V73.8659Z" fill="white"/>
<path d="M109.388 58.5146H114.019L119.885 72.5629H114.811L114.098 70.6903H109.181L108.467 72.5629H103.472L109.388 58.5146ZM111.864 54.2922L116.474 55.3318L113.284 57.6245H109.952L111.864 54.2922ZM112.942 67.3865L111.664 63.9972L110.387 67.3865H112.942Z" fill="white"/>
<path d="M122.475 58.6213H126.85L131.845 64.7733V58.6213H136.476V72.5629H132.302L127.107 66.1546V72.5629H122.475V58.6213Z" fill="white"/>
<path d="M60.9202 85.3226H65.7941L68.7912 90.2214L71.7812 85.3226H76.6551V99.2642H72.0024V92.3575L68.7912 97.3417H68.7056L65.4944 92.3575V99.2642H60.9202V85.3226Z" fill="white"/>
<path d="M79.0171 92.336V92.2933C79.0031 91.3256 79.1935 90.3658 79.5758 89.4764C79.9582 88.587 80.524 87.7879 81.2364 87.1311C82.7207 85.7797 84.6576 85.0304 86.6669 85.0304C88.6763 85.0304 90.6131 85.7797 92.0974 87.1311C92.8022 87.787 93.3604 88.5839 93.7354 89.4698C94.1105 90.3557 94.294 91.3105 94.2739 92.2719V92.3076C94.2871 93.2732 94.0985 94.2309 93.7201 95.1197C93.3417 96.0085 92.7817 96.8089 92.076 97.4698C90.6143 98.8746 88.6533 99.6429 86.6241 99.6059C85.6293 99.6306 84.6393 99.4591 83.711 99.1011C82.7828 98.743 81.9345 98.2056 81.215 97.5196C80.5027 96.8594 79.9386 96.0561 79.5597 95.1627C79.1809 94.2692 78.996 93.3059 79.0171 92.336ZM84.7259 81.2996H88.5937L90.9557 84.3257H88.2012L86.6241 83.3075L85.0471 84.3257H82.3496L84.7259 81.2996ZM89.5784 92.336V92.2933C89.6001 91.4864 89.3116 90.7017 88.7721 90.1003C88.5042 89.7972 88.1748 89.5545 87.8057 89.3882C87.4366 89.222 87.0362 89.136 86.6313 89.136C86.2263 89.136 85.826 89.222 85.4568 89.3882C85.0877 89.5545 84.7583 89.7972 84.4905 90.1003C83.9789 90.6939 83.7023 91.4535 83.7126 92.2363V92.2719C83.6905 93.0777 83.9762 93.8617 84.5119 94.465C84.7744 94.7737 85.1031 95.0197 85.4736 95.1849C85.8441 95.35 86.247 95.43 86.6527 95.4191C87.057 95.4353 87.4597 95.3597 87.8305 95.1981C88.2013 95.0366 88.5305 94.7932 88.7935 94.4864C89.3075 93.889 89.582 93.1231 89.5642 92.336H89.5784Z" fill="white"/>
<path d="M97.5779 85.3226H102.245V99.2642H97.5779V85.3226Z" fill="white"/>
<path d="M114.719 89.2673H110.608V85.3226H123.503V89.2673H119.393V99.2357H114.719V89.2673Z" fill="white"/>
<path d="M126.55 85.3226H133.379C135.677 85.3226 137.347 85.8567 138.41 86.9176C138.838 87.352 139.172 87.8693 139.392 88.4375C139.611 89.0057 139.712 89.6128 139.688 90.2214V90.2641C139.718 91.1712 139.471 92.066 138.979 92.8292C138.487 93.5925 137.773 94.188 136.933 94.5363L140.187 99.2713H134.871L132.238 95.2911H131.238V99.2713H126.572L126.55 85.3226ZM133.237 91.9588C134.435 91.9588 135.035 91.4959 135.035 90.5988C135.035 89.7016 134.435 89.2602 133.258 89.2602H131.217V91.9944L133.237 91.9588Z" fill="white"/>
<path d="M156.507 92.9129C156.507 97.3322 154.19 99.5442 149.557 99.549C144.923 99.5537 142.644 97.3749 142.72 93.0126V85.3226H147.473V92.9556C147.473 94.6075 148.187 95.4192 149.614 95.4192C151.041 95.4192 151.755 94.6217 151.755 93.0482V85.3226H156.507V87.4587C157.128 87.1597 157.406 86.4405 157.342 85.3226H159.847C159.847 86.9532 159.49 88.0497 158.791 88.5908C158.116 89.0241 157.337 89.2699 156.536 89.3029L156.507 92.9129Z" fill="white"/>
<path d="M176.723 92.2578V92.2934C176.737 93.2597 176.548 94.2182 176.168 95.1072C175.788 95.9963 175.226 96.7962 174.518 97.4556C173.796 98.1516 172.944 98.6986 172.009 99.0652C171.075 99.4317 170.077 99.6107 169.074 99.5917C168.079 99.6172 167.088 99.446 166.16 99.088C165.232 98.7299 164.384 98.1921 163.665 97.5054C162.956 96.8511 162.394 96.055 162.016 95.1691C161.637 94.2832 161.45 93.3276 161.467 92.3646V92.3219C161.451 91.3546 161.64 90.395 162.021 89.5055C162.403 88.6161 162.967 87.8168 163.679 87.1596C165.163 85.8082 167.1 85.059 169.109 85.059C171.119 85.059 173.056 85.8082 174.54 87.1596L174.704 87.3163C174.926 87.0511 175.088 86.7418 175.18 86.4091C175.272 86.0763 175.293 85.7278 175.239 85.3867H177.687C177.687 87.0172 177.33 88.1138 176.631 88.6549C176.408 88.807 176.168 88.9336 175.917 89.0323C176.437 90.0289 176.714 91.1342 176.723 92.2578ZM165.377 81.9547L169.794 80.8154L171.707 84.6462H168.674L165.377 81.9547ZM171.978 92.3361V92.2934C172.002 91.4873 171.716 90.7025 171.179 90.1003C170.911 89.7973 170.581 89.5545 170.212 89.3883C169.843 89.222 169.443 89.136 169.038 89.136C168.633 89.136 168.233 89.222 167.864 89.3883C167.494 89.5545 167.165 89.7973 166.897 90.1003C166.383 90.6922 166.106 91.453 166.119 92.2364V92.272C166.105 93.0945 166.415 93.8896 166.983 94.4864C167.251 94.7895 167.58 95.0322 167.949 95.1985C168.318 95.3647 168.719 95.4507 169.124 95.4507C169.529 95.4507 169.929 95.3647 170.298 95.1985C170.667 95.0322 170.997 94.7895 171.264 94.4864C171.759 93.8812 172.012 93.1159 171.978 92.3361Z" fill="white"/>
<path d="M180.862 85.3226H185.237L190.232 91.4746V85.3226H194.813V99.2642H190.667L185.465 92.8559V99.2642H180.841L180.862 85.3226Z" fill="white"/>
<path d="M197.204 92.336V92.2933C197.179 91.3215 197.361 90.3555 197.739 89.4593C198.117 88.5632 198.681 87.7574 199.395 87.0955C200.886 85.7042 202.87 84.9592 204.911 85.0235C207.058 84.9789 209.144 85.7413 210.755 87.1596L208.143 90.3068C207.293 89.5403 206.192 89.1099 205.046 89.0963C204.626 89.0887 204.209 89.1676 203.821 89.3281C203.433 89.4886 203.083 89.7272 202.791 90.0291C202.204 90.6714 201.889 91.5164 201.914 92.3859C201.899 92.8308 201.975 93.2741 202.137 93.689C202.299 94.1038 202.543 94.4816 202.856 94.7997C203.397 95.2625 204.059 95.5641 204.764 95.6698C205.469 95.7756 206.19 95.6813 206.845 95.3978V93.9737H204.447V90.9832H211.226V97.4413C209.479 98.8408 207.293 99.5797 205.053 99.5275C203.017 99.5951 201.031 98.8846 199.502 97.541C198.76 96.8944 198.17 96.093 197.772 95.1936C197.375 94.2941 197.181 93.3186 197.204 92.336Z" fill="white"/>
</svg>
