<svg xmlns="http://www.w3.org/2000/svg" viewBox="0 0 171 194.2"><defs><style>.cls-1{isolation:isolate;}.cls-2{fill:#141414;}.cls-3{fill:#fff;}.cls-4{fill:#00ff75;mix-blend-mode:multiply;}</style></defs><title>pine</title><g class="cls-1"><g id="Layer_1" data-name="Layer 1"><rect class="cls-2" width="171" height="194"/><path class="cls-3" d="M108.77,182.15a19.35,19.35,0,0,1-19.13-16.66,19.3,19.3,0,0,0,13.61,5.61,2.76,2.76,0,1,0,0-5.52,14.17,14.17,0,0,1-14-13.82v-.07a14.89,14.89,0,0,0,8.51,2.83,2.76,2.76,0,1,0,0-5.52,8.3,8.3,0,0,1-8.29-8.29,2.76,2.76,0,1,0-5.52,0A8.3,8.3,0,0,1,75.62,149a2.76,2.76,0,0,0,0,5.52,10.46,10.46,0,0,0,7.59-2.83v.07c.7,7.62-5.5,13.82-13.12,13.82a2.76,2.76,0,0,0,0,5.52,19.3,19.3,0,0,0,13.61-5.61,19.35,19.35,0,0,1-19.13,16.66,2.77,2.77,0,0,0,0,5.53c7.81,0,14.78-3.63,18.64-9.27v12c.7,1.53,1.94,2.76,3.46,2.76a2.45,2.45,0,0,0,2.54-2.76v-12a25.62,25.62,0,0,0,19.56,9.27,2.77,2.77,0,0,0,0-5.53Z" transform="translate(0.21 1)"/><path class="cls-3" d="M64.57,115.85c7.81,0,14.78-3.63,18.64-9.27v12c.7,1.53,1.94,2.76,3.46,2.76a2.45,2.45,0,0,0,2.54-2.76v-12a25.62,25.62,0,0,0,19.56,9.27,2.77,2.77,0,0,0,0-5.53A19.35,19.35,0,0,1,89.64,93.66a19.3,19.3,0,0,0,13.61,5.61,2.76,2.76,0,0,0,0-5.52,14.17,14.17,0,0,1-14-13.82v-.07a14.89,14.89,0,0,0,8.51,2.83,2.76,2.76,0,1,0,0-5.52,8.3,8.3,0,0,1-8.29-8.29,2.76,2.76,0,0,0-5.52,0,8.3,8.3,0,0,1-8.29,8.29,2.76,2.76,0,0,0,0,5.52,10.46,10.46,0,0,0,7.59-2.83v.07c.7,7.62-5.5,13.82-13.12,13.82a2.76,2.76,0,0,0,0,5.52A19.3,19.3,0,0,0,83.7,93.66a19.35,19.35,0,0,1-19.13,16.66,2.77,2.77,0,0,0,0,5.53Z" transform="translate(0.21 1)"/><path class="cls-3" d="M56.28,74.41A19.36,19.36,0,0,1,37.15,57.74a19.27,19.27,0,0,0,13.61,5.62,2.77,2.77,0,0,0,0-5.53A13.44,13.44,0,0,1,37.21,44v-.08a12.33,12.33,0,0,0,8,2.84,2.77,2.77,0,0,0,0-5.53A8.29,8.29,0,0,1,36.94,33a2.76,2.76,0,1,0-5.52,0,8.29,8.29,0,0,1-8.29,8.28,2.77,2.77,0,0,0,0,5.53,12.62,12.62,0,0,0,8.08-2.84V44A13.52,13.52,0,0,1,17.6,57.83a2.77,2.77,0,0,0,0,5.53,19.28,19.28,0,0,0,13.61-5.62A19.36,19.36,0,0,1,12.08,74.41a2.76,2.76,0,1,0,0,5.52,24.1,24.1,0,0,0,19.13-9.27v12a3.1,3.1,0,0,0,3,2.77,3.22,3.22,0,0,0,3-2.77v-12a23.87,23.87,0,0,0,19.07,9.27,2.76,2.76,0,0,0,0-5.52Z" transform="translate(0.21 1)"/><path class="cls-3" d="M114.3,79.93a23.36,23.36,0,0,0,18.91-9.27v12a3.52,3.52,0,0,0,3.19,2.77,2.84,2.84,0,0,0,2.81-2.77v-12a24.63,24.63,0,0,0,19.29,9.27,2.76,2.76,0,0,0,0-5.52,19.36,19.36,0,0,1-19.13-16.67A19.26,19.26,0,0,0,153,63.36a2.77,2.77,0,1,0,0-5.53A13.76,13.76,0,0,1,139.21,44v-.08a13.41,13.41,0,0,0,8.24,2.84,2.77,2.77,0,0,0,0-5.53A8.29,8.29,0,0,1,139.16,33a2.76,2.76,0,1,0-5.52,0,8.29,8.29,0,0,1-8.29,8.28,2.77,2.77,0,0,0,0,5.53,11.59,11.59,0,0,0,7.86-2.84V44a13.21,13.21,0,0,1-13.39,13.81,2.77,2.77,0,0,0,0,5.53,19.28,19.28,0,0,0,13.61-5.62A19.36,19.36,0,0,1,114.3,74.41a2.76,2.76,0,1,0,0,5.52Z" transform="translate(0.21 1)"/><path class="cls-3" d="M158.5,143.47a19.35,19.35,0,0,1-19.13-16.66,19.25,19.25,0,0,0,13.6,5.61,2.76,2.76,0,1,0,0-5.52,13.76,13.76,0,0,1-13.76-13.82V113a13.41,13.41,0,0,0,8.24,2.84,2.77,2.77,0,0,0,0-5.53,8.3,8.3,0,0,1-8.29-8.29,2.76,2.76,0,1,0-5.52,0,8.3,8.3,0,0,1-8.29,8.29,2.77,2.77,0,0,0,0,5.53,11.59,11.59,0,0,0,7.86-2.84v.07a13.21,13.21,0,0,1-13.39,13.82,2.76,2.76,0,0,0,0,5.52,19.27,19.27,0,0,0,13.61-5.61,19.35,19.35,0,0,1-19.13,16.66,2.77,2.77,0,1,0,0,5.53,23.38,23.38,0,0,0,18.91-9.27v12a3.51,3.51,0,0,0,3.19,2.76,2.84,2.84,0,0,0,2.81-2.76v-12A24.66,24.66,0,0,0,158.5,149a2.77,2.77,0,0,0,0-5.53Z" transform="translate(0.21 1)"/><path class="cls-3" d="M56.28,143.47a19.35,19.35,0,0,1-19.13-16.66,19.26,19.26,0,0,0,13.61,5.61,2.76,2.76,0,1,0,0-5.52,13.44,13.44,0,0,1-13.55-13.82V113a12.33,12.33,0,0,0,8,2.84,2.77,2.77,0,0,0,0-5.53A8.3,8.3,0,0,1,36.94,102a2.76,2.76,0,0,0-5.52,0,8.3,8.3,0,0,1-8.29,8.29,2.77,2.77,0,0,0,0,5.53A12.62,12.62,0,0,0,31.21,113v.07A13.53,13.53,0,0,1,17.6,126.9a2.76,2.76,0,0,0,0,5.52,19.27,19.27,0,0,0,13.61-5.61,19.35,19.35,0,0,1-19.13,16.66,2.77,2.77,0,1,0,0,5.53,24.13,24.13,0,0,0,19.13-9.27v12a3.09,3.09,0,0,0,3,2.76,3.21,3.21,0,0,0,3-2.76v-12A23.9,23.9,0,0,0,56.28,149a2.77,2.77,0,0,0,0-5.53Z" transform="translate(0.21 1)"/><circle class="cls-4" cx="125.71" cy="52.5" r="44.5"/></g></g></svg>