<svg xmlns="http://www.w3.org/2000/svg" xmlns:xlink="http://www.w3.org/1999/xlink" viewBox="0 0 295.14 256"><defs><style>.cls-1{fill:none;}.cls-2{isolation:isolate;}.cls-3{fill:#141414;}.cls-4{clip-path:url(#clip-path);}.cls-5{fill:#fff;}.cls-6{fill:red;mix-blend-mode:multiply;}</style><clipPath id="clip-path"><rect class="cls-1" x="85" width="210" height="210"/></clipPath></defs><title>topic</title><g class="cls-2"><g id="Layer_1" data-name="Layer 1"><rect class="cls-3" width="295" height="256"/><g class="cls-4"><path class="cls-5" d="M282.36,159.84a2.4,2.4,0,1,0-2.4-2.4A2.39,2.39,0,0,0,282.36,159.84Z"/><path class="cls-5" d="M251,159.84a2.4,2.4,0,1,0-2.4-2.4A2.39,2.39,0,0,0,251,159.84Z"/><path class="cls-5" d="M219.62,159.84a2.4,2.4,0,1,0-2.4-2.4A2.39,2.39,0,0,0,219.62,159.84Z"/><path class="cls-5" d="M265.67,120h.58V94.33a3.08,3.08,0,0,0-3.08-3.08H213.08A3.08,3.08,0,0,0,210,94.33V120h-.67a3.08,3.08,0,0,0-3.08,3.08v12.59a3.08,3.08,0,0,0,3.08,3.08h56.34a3.08,3.08,0,0,0,3.08-3.08V123.08A3.08,3.08,0,0,0,265.67,120ZM216.25,97.5H260V120H216.25Zm47.5,35H212.5v-6.25h51.25Z"/><path class="cls-5" d="M163.17,106.25h-.67V80.58a3.08,3.08,0,0,0-3.08-3.08H134.33a3.08,3.08,0,0,0-3.08,3.08v25.67h-.67a3.08,3.08,0,0,0-3.08,3.08v12.59a3.08,3.08,0,0,0,3.08,3.08h32.59a3.08,3.08,0,0,0,3.08-3.08V109.33A3.08,3.08,0,0,0,163.17,106.25ZM137.5,83.75h18.75v22.5H137.5Zm22.5,35H133.75V112.5H160Z"/><path class="cls-5" d="M293.79,147.78l-7.54-4.33V83.75h5.6a3.11,3.11,0,0,0,2.83-4.43L277.43,43a3.07,3.07,0,0,0-2.78-1.76H250v-15h1a3.05,3.05,0,0,0,2.76-3.38V10.11C254.07,8.41,251,7.5,251,7.5H221.1s-3.08.91-2.35,2.61V22.87c-.73,1.7.65,3.07,2.35,3.38h1.4v15h-62l-6.57-5.71a10.26,10.26,0,0,0-13.45,0l-6.57,5.71H110.76A3.08,3.08,0,0,0,108,43L91.25,78.33l-5,4.38a3.08,3.08,0,0,0-.3,4.35l9.48,10.8a3,3,0,0,0,2.11,1V199.42a3.08,3.08,0,0,0,3.08,3.08H292.37s3.07-1.57,2.63-3.26V150.51A2.18,2.18,0,0,0,293.79,147.78Zm-70-134H247.5V20H223.75Zm20,12.5v22.5h-15V26.25ZM112.93,47.5H127l-23.9,20.87ZM160,196.25H133.75v-55H160Zm30,0H166.25V138.08a3.08,3.08,0,0,0-3.08-3.08H130.58a3.08,3.08,0,0,0-3.08,3.08v58.17H103.75V94.53l43.12-37.87L190,94.53ZM148.41,50.33a2.56,2.56,0,0,0-3.38,0L97.33,92,91.9,85.75l52.57-45.9a3.42,3.42,0,0,1,4.51,0l25.27,22.06a2.74,2.74,0,0,0,2.29.65,3.13,3.13,0,0,0,1.65-5.44l-11-9.62H222.5v4.42A3.08,3.08,0,0,0,225.58,55h21.34A3.08,3.08,0,0,0,250,51.92V47.5h22.41l14.14,30h-85L187.36,65.13a2.7,2.7,0,0,0-2.59-.57,3.15,3.15,0,0,0-1.3,5.4l18.08,15.79L196.11,92Zm57.84,145.92h-10V192.5h10Zm0-10h-10V180h10Zm0-12.5h-10v-7.5h10Zm0-13.75h-10v-6.25h10Zm20,36.25H212.5V152.47l6.88-3.6,6.87,3.6Zm11.25,0h-5V192.5h5Zm0-10h-5V180h5Zm0-12.5h-5v-7.5h5Zm0-13.75h-5v-6.25h5Zm20,36.25H243.75V152.47l6.88-3.6,6.87,3.6Zm11.25,0h-5V192.5h5Zm0-10h-5V180h5Zm0-12.5h-5v-7.5h5Zm0-13.75h-5v-6.25h5Zm-7.54-12.5-9.34-4.89a3.12,3.12,0,0,0-2.85,0l-9.34,4.89h-9.85l-9.34-4.89a3.12,3.12,0,0,0-2.85,0l-9.34,4.89H196.25V98.26s.63-.11.68-.13a3.15,3.15,0,0,0,1.43-.93l9.44-10.91A3.17,3.17,0,0,0,208,82.5h70.73v61h0l-7.69,4Zm27.54,48.75H275V152.47l6.88-3.6,6.87,3.6Z"/></g><rect class="cls-6" x="1" y="86" width="170" height="170"/></g></g></svg>